<svg xmlns="http://www.w3.org/2000/svg" xmlns:xlink="http://www.w3.org/1999/xlink" width="69" zoomAndPan="magnify" viewBox="0 0 375 374.999991" height="69" preserveAspectRatio="xMidYMid meet" version="1.0"><path fill="#000000" d="M 169.683594 189.859375 C 160.074219 182.949219 133.144531 172.078125 121.28125 181.570312 C 119.558594 179.617188 117.792969 177.558594 115.765625 175.410156 C 114.417969 173.988281 112.878906 173.144531 111.269531 172.65625 C 109.371094 146.402344 101.269531 119.707031 106.824219 93.492188 C 107.542969 90.117188 108.488281 86.90625 109.648438 83.84375 C 124.875 74.082031 141.183594 67.816406 159.453125 67.902344 C 178.90625 67.996094 196.398438 77.921875 210.84375 90.136719 C 223.898438 101.167969 228.875 118.785156 232.96875 134.675781 C 236.476562 148.375 242.71875 161.390625 244.121094 176.148438 C 239.851562 178.121094 235.894531 181.03125 232.425781 185.101562 C 232.34375 185.214844 232.28125 185.296875 232.210938 185.402344 C 226.789062 189.285156 222.363281 194.324219 218.105469 200.421875 C 212.933594 207.847656 204.964844 214.804688 201.671875 223.488281 C 192.792969 210.476562 182.023438 198.738281 169.683594 189.859375 Z M 292.617188 184.5 C 292.136719 184.175781 291.660156 183.855469 291.164062 183.53125 C 291.191406 183.273438 291.191406 183.011719 291.140625 182.753906 C 287.609375 160.402344 285.023438 137.882812 279.425781 115.917969 C 274.492188 96.558594 263.015625 81.152344 249.71875 66.675781 C 224.804688 39.535156 191.503906 25.730469 154.644531 29.699219 C 125.9375 32.773438 98.472656 44.636719 83.570312 70.382812 C 74.410156 86.210938 70.453125 106.527344 67.648438 124.339844 C 64.273438 145.859375 71.398438 165.242188 74.304688 186.242188 C 73.347656 188.746094 73.679688 191.175781 74.367188 194.261719 C 76.757812 205.074219 77.035156 213 72.738281 223.6875 C 72.621094 224.007812 72.558594 224.289062 72.519531 224.589844 C 72.257812 224.933594 72 225.253906 71.738281 225.617188 C 62.289062 239.496094 69.132812 259.65625 75.570312 273.136719 C 83.476562 289.640625 97.050781 306.289062 109.453125 319.613281 C 119.972656 330.882812 133.683594 339.566406 148.078125 344.863281 C 149.324219 345.34375 150.644531 345.746094 151.972656 346.140625 C 152.472656 346.527344 153.117188 346.785156 153.9375 346.785156 C 154.101562 346.785156 154.300781 346.785156 154.476562 346.785156 C 163.992188 349 174.597656 348.695312 182.882812 343.597656 C 182.96875 343.554688 183.082031 343.523438 183.164062 343.484375 C 191.566406 341.011719 198.753906 336.835938 203.65625 329.9375 C 206.273438 327.757812 208.820312 325.566406 211.230469 323.4375 C 212.070312 322.679688 212.847656 321.921875 213.597656 321.152344 C 222.300781 329.898438 232.125 337.863281 244.445312 340.492188 C 257.199219 343.222656 270.097656 333.792969 279.5625 326.574219 C 303.191406 308.523438 317.875 275.617188 321.6875 246.683594 C 323.390625 233.71875 323.109375 222.109375 316.972656 210.433594 C 311.4375 199.859375 302.214844 191.332031 292.617188 184.5 " fill-opacity="1" fill-rule="nonzero"/><path fill="#000000" d="M 104.414062 178.515625 C 109.371094 178.015625 113.160156 181.632812 116.847656 185.878906 C 105.472656 190.855469 94.207031 195.984375 82.25 199.339844 C 81.992188 197.917969 81.667969 196.472656 81.265625 195.007812 C 79.414062 188.464844 80.546875 186.804688 86.519531 183.511719 C 91.835938 180.582031 98.433594 179.117188 104.414062 178.515625 " fill-opacity="1" fill-rule="nonzero"/><path fill="#ffffff" d="M 213.492188 259.613281 C 221.054688 278.203125 222.757812 296.785156 212.070312 312.230469 C 211.707031 312.40625 211.363281 312.574219 211 312.75 C 210.386719 313.070312 210.003906 313.476562 209.742188 313.933594 C 209.980469 312.40625 210.160156 310.785156 210.261719 309.105469 C 211.25 293.089844 202.554688 277.042969 195.253906 263.402344 C 187.113281 248.175781 180.339844 231.695312 169.984375 217.796875 C 161.40625 206.277344 149.71875 198.394531 136.488281 193.160156 C 131.980469 191.375 128.738281 189.070312 125.914062 186.421875 C 131.855469 182.816406 143.75 185.964844 149.066406 187.261719 C 159.554688 189.796875 168.382812 196.328125 176.257812 203.453125 C 192.53125 218.234375 205.226562 239.339844 213.492188 259.613281 " fill-opacity="1" fill-rule="nonzero"/><path fill="#ffffff" d="M 289.355469 190.074219 C 308.464844 202.769531 317.875 220.726562 315.664062 243.429688 C 313.160156 268.742188 300.625 297.867188 282.3125 315.761719 C 274.386719 323.5 263.980469 330.90625 253.230469 333.96875 C 247.527344 335.601562 241.773438 334.175781 236.34375 331.320312 C 241.734375 329.660156 246.605469 327.269531 250.988281 324.609375 C 256.980469 320.996094 262.171875 316.882812 266.804688 312.644531 C 271.4375 308.398438 275.46875 303.984375 279.019531 299.570312 C 282.550781 295.132812 285.679688 290.742188 288.234375 286.273438 C 290.871094 281.726562 292.742188 277.507812 294.695312 273.457031 C 296.574219 269.40625 298.339844 265.574219 299.804688 261.878906 C 302.796875 254.503906 304.820312 247.761719 305.984375 241.800781 C 307.1875 235.828125 307.449219 230.65625 307.34375 226.375 C 307.300781 225.296875 307.300781 224.289062 307.242188 223.332031 C 307.125 222.367188 307.042969 221.464844 306.9375 220.601562 C 306.785156 218.878906 306.480469 217.390625 306.203125 216.09375 C 305.722656 213.464844 305.058594 211.679688 304.621094 210.527344 C 304.175781 209.382812 303.855469 208.886719 303.636719 208.925781 C 303.417969 208.96875 303.3125 209.570312 303.355469 210.796875 C 303.355469 212.03125 303.636719 213.859375 303.707031 216.425781 C 303.792969 217.695312 303.894531 219.15625 303.855469 220.820312 C 303.855469 221.640625 303.875 222.503906 303.875 223.425781 C 303.832031 224.332031 303.761719 225.296875 303.730469 226.3125 C 303.492188 230.375 302.929688 235.226562 301.507812 240.804688 C 300.144531 246.410156 297.976562 252.738281 294.847656 259.777344 C 293.324219 263.332031 291.515625 267.039062 289.574219 270.984375 C 287.570312 274.902344 285.523438 279.210938 283.113281 283.242188 C 278.085938 291.40625 271.3125 299.953125 262.515625 307.941406 C 258.101562 311.929688 253.191406 315.78125 247.675781 319.105469 C 242.179688 322.398438 236 325.183594 229.34375 326.367188 L 229.414062 326.8125 C 225.1875 323.582031 221.335938 319.832031 218.042969 316.476562 C 228.957031 311.265625 240.332031 307.316406 249.230469 298.632812 C 257.179688 290.867188 263.722656 281.519531 269.601562 272.148438 C 281.472656 253.296875 293.144531 228.078125 289.613281 205.199219 C 288.191406 196.109375 284.660156 189.234375 279.601562 184.5625 C 283 186.160156 286.28125 188.050781 289.355469 190.074219 " fill-opacity="1" fill-rule="nonzero"/><path fill="#000000" d="M 180.960938 286.792969 C 186.851562 303.621094 199.109375 319.035156 183.601562 334.957031 C 182.757812 335.796875 181.84375 336.523438 180.953125 337.21875 C 179.25 338.082031 177.546875 338.851562 175.84375 339.566406 C 171.335938 340.210938 166.679688 340.367188 162.164062 340.367188 C 156.429688 339.164062 150.570312 336.941406 145.316406 336.554688 C 145.046875 336.523438 144.777344 336.554688 144.527344 336.574219 C 120.296875 326.429688 104.132812 304.222656 89.386719 283.460938 C 80.058594 270.34375 71.636719 253.140625 74.324219 236.628906 C 76.933594 220.496094 94.964844 215.988281 108.703125 215.386719 C 146.550781 215.429688 169.902344 255.042969 180.960938 286.792969 " fill-opacity="1" fill-rule="nonzero"/><path fill="#ffffff" d="M 201.695312 293.949219 C 204.863281 304.304688 204.644531 316 199.429688 325.066406 C 198.246094 325.992188 197.0625 326.917969 195.824219 327.851562 C 199.386719 318.046875 197.019531 307.234375 192.023438 296.101562 C 175.5625 259.394531 156.710938 208.988281 108.703125 208.925781 C 99.179688 209.363281 89.6875 211.140625 81.90625 215.96875 C 82.632812 212.613281 83.007812 209.269531 82.914062 205.894531 C 95.972656 202.332031 108.207031 196.652344 120.578125 191.261719 C 120.785156 191.15625 121.003906 191.019531 121.167969 190.917969 C 123.265625 193.222656 125.417969 195.3125 127.847656 196.515625 C 141.359375 203.265625 152.941406 207.742188 163.160156 219.519531 C 171.40625 229.046875 176.257812 241.019531 181.84375 252.132812 C 188.847656 265.988281 197.125 278.972656 201.695312 293.949219 " fill-opacity="1" fill-rule="nonzero"/><path fill="#ffffff" d="M 275.09375 125.367188 C 279.300781 143.121094 281.429688 161.347656 284.121094 179.378906 C 281.304688 177.957031 278.367188 176.699219 275.394531 175.710938 C 267.949219 142.390625 265.746094 105.625 244.601562 77.425781 C 228.855469 56.402344 201.515625 42.039062 175.539062 39.316406 C 144.070312 36.066406 118.3125 50.304688 104.851562 79.191406 C 91.316406 108.210938 102.429688 141.726562 104.757812 172.023438 C 104.652344 172.046875 104.539062 172.046875 104.414062 172.046875 C 97.03125 172.398438 86.5625 174.726562 79.800781 179.722656 C 76.933594 162.707031 72 146.566406 73.546875 128.929688 C 75.050781 111.585938 80.246094 91.644531 87.910156 75.980469 C 101.027344 49.183594 130.109375 38.789062 158.007812 35.785156 C 193.65625 31.953125 224.046875 48.261719 247.550781 73.851562 C 261.632812 89.191406 270.316406 105.148438 275.09375 125.367188 " fill-opacity="1" fill-rule="nonzero"/><path fill="#000000" d="M 268.394531 173.84375 C 262.296875 172.65625 256.140625 172.585938 250.324219 173.988281 C 249.597656 168.066406 248.089844 162.1875 245.972656 156.332031 C 242.480469 146.566406 240.207031 136.460938 237.527344 126.449219 C 232.625 108.097656 224.585938 92.933594 209.679688 80.894531 C 180.859375 57.648438 145.792969 57.128906 114.78125 73.4375 C 127.640625 52.675781 151.933594 42.527344 177.648438 46.078125 C 203.824219 49.703125 229.132812 65.191406 243.625 87.25 C 260.128906 112.34375 262.371094 144.9375 268.394531 173.84375 " fill-opacity="1" fill-rule="nonzero"/><path fill="#000000" d="M 250.074219 184.457031 C 278.160156 176.46875 286.382812 203.152344 282.3125 225.359375 C 278.980469 243.546875 269.734375 260.660156 259.503906 275.847656 C 254.726562 282.917969 249.292969 289.527344 243.199219 295.496094 C 237.507812 301.054688 230.078125 304.367188 222.675781 307.515625 C 224.605469 302.820312 225.664062 297.867188 226.007812 292.808594 C 226.226562 292.714844 226.445312 292.632812 226.652344 292.507812 C 240.695312 283.78125 249.355469 270.789062 255.089844 255.519531 C 259.027344 245.050781 267.105469 226.417969 261.707031 215.222656 C 256.960938 205.417969 244.296875 204.378906 235.375 209.207031 C 223.785156 215.472656 217.90625 228.765625 211.539062 239.941406 C 209.898438 236.847656 208.152344 233.761719 206.296875 230.726562 C 206.511719 230.332031 206.667969 229.90625 206.710938 229.386719 C 207.574219 220.320312 216.898438 213.175781 222 206.195312 C 229.519531 195.851562 235.75 189.191406 247.613281 185.234375 C 248.316406 185.234375 249.015625 185.019531 249.597656 184.613281 C 249.75 184.5625 249.917969 184.519531 250.074219 184.457031 " fill-opacity="1" fill-rule="nonzero"/><path fill="#ffffff" d="M 246.6875 212.894531 C 255.234375 212.261719 256.742188 219.738281 256.273438 226.5 C 254.789062 247.742188 243.582031 272.574219 226.027344 285.113281 C 230.816406 281.683594 223.015625 264.972656 221.59375 260.515625 C 224.386719 258.988281 224.566406 255.386719 225.726562 252.652344 C 227.773438 247.867188 230.828125 243.472656 233.308594 238.914062 C 236.695312 232.703125 240.007812 228.402344 242.824219 225.554688 C 244.257812 224.089844 245.585938 223.144531 246.707031 222.242188 C 247.890625 221.546875 248.835938 220.859375 249.636719 220.425781 C 251.257812 219.675781 252.003906 219.074219 251.941406 218.617188 C 251.882812 218.191406 251.039062 217.933594 248.910156 218.015625 C 247.871094 218.097656 246.605469 218.515625 245.003906 219.054688 C 244.257812 219.417969 243.4375 219.824219 242.554688 220.28125 C 241.617188 220.726562 240.828125 221.421875 239.851562 222.085938 C 236.136719 224.910156 232.042969 229.472656 228.160156 235.890625 C 224.929688 241.042969 221.855469 247.542969 218.519531 254.9375 C 217.386719 252.195312 216.191406 249.464844 214.914062 246.753906 C 215.082031 246.558594 215.257812 246.339844 215.414062 246.101562 C 220.667969 237.449219 225.105469 228.265625 231.542969 220.402344 C 235.417969 215.667969 240.652344 213.320312 246.6875 212.894531 " fill-opacity="1" fill-rule="nonzero"/><path fill="#000000" d="M 116.847656 185.878906 C 113.160156 181.632812 109.371094 178.015625 104.414062 178.515625 C 98.433594 179.117188 91.835938 180.582031 86.519531 183.511719 C 80.546875 186.804688 79.414062 188.464844 81.265625 195.007812 C 81.667969 196.472656 81.992188 197.917969 82.25 199.339844 C 94.207031 195.984375 105.472656 190.855469 116.847656 185.878906 Z M 183.601562 334.957031 C 199.109375 319.035156 186.851562 303.621094 180.960938 286.792969 C 169.902344 255.042969 146.550781 215.429688 108.703125 215.386719 C 94.964844 215.988281 76.933594 220.496094 74.324219 236.628906 C 71.636719 253.140625 80.058594 270.34375 89.386719 283.460938 C 104.132812 304.222656 120.296875 326.429688 144.527344 336.574219 C 144.777344 336.554688 145.046875 336.523438 145.316406 336.554688 C 150.570312 336.941406 156.429688 339.164062 162.164062 340.367188 C 166.679688 340.367188 171.335938 340.210938 175.84375 339.566406 C 177.546875 338.851562 179.25 338.082031 180.953125 337.21875 C 181.84375 336.523438 182.757812 335.796875 183.601562 334.957031 Z M 199.429688 325.066406 C 204.644531 316 204.863281 304.304688 201.695312 293.949219 C 197.125 278.972656 188.847656 265.988281 181.84375 252.132812 C 176.257812 241.019531 171.40625 229.046875 163.160156 219.519531 C 152.941406 207.742188 141.359375 203.265625 127.847656 196.515625 C 125.417969 195.3125 123.265625 193.222656 121.167969 190.917969 C 121.003906 191.019531 120.785156 191.15625 120.578125 191.261719 C 108.207031 196.652344 95.972656 202.332031 82.914062 205.894531 C 83.007812 209.269531 82.632812 212.613281 81.90625 215.96875 C 89.6875 211.140625 99.179688 209.363281 108.703125 208.925781 C 156.710938 208.988281 175.5625 259.394531 192.023438 296.101562 C 197.019531 307.234375 199.386719 318.046875 195.824219 327.851562 C 197.0625 326.917969 198.246094 325.992188 199.429688 325.066406 Z M 212.070312 312.230469 C 222.757812 296.785156 221.054688 278.203125 213.492188 259.613281 C 205.226562 239.339844 192.53125 218.234375 176.257812 203.453125 C 168.382812 196.328125 159.554688 189.796875 149.066406 187.261719 C 143.75 185.964844 131.855469 182.816406 125.914062 186.421875 C 128.738281 189.070312 131.980469 191.375 136.488281 193.160156 C 149.71875 198.394531 161.40625 206.277344 169.984375 217.796875 C 180.339844 231.695312 187.113281 248.175781 195.253906 263.402344 C 202.554688 277.042969 211.25 293.089844 210.261719 309.105469 C 210.160156 310.785156 209.980469 312.40625 209.742188 313.933594 C 210.003906 313.476562 210.386719 313.070312 211 312.75 C 211.363281 312.574219 211.707031 312.40625 212.070312 312.230469 Z M 244.121094 176.148438 C 242.71875 161.390625 236.476562 148.375 232.96875 134.675781 C 228.875 118.785156 223.898438 101.167969 210.84375 90.136719 C 196.398438 77.921875 178.90625 67.996094 159.453125 67.902344 C 141.183594 67.816406 124.875 74.089844 109.648438 83.84375 C 108.488281 86.90625 107.542969 90.117188 106.824219 93.492188 C 101.269531 119.707031 109.371094 146.402344 111.269531 172.65625 C 112.878906 173.144531 114.417969 173.988281 115.765625 175.410156 C 117.792969 177.558594 119.558594 179.617188 121.28125 181.570312 C 133.144531 172.078125 160.074219 182.949219 169.683594 189.867188 C 182.023438 198.738281 192.792969 210.476562 201.671875 223.488281 C 204.964844 214.804688 212.933594 207.847656 218.105469 200.421875 C 222.363281 194.324219 226.789062 189.285156 232.210938 185.402344 C 232.28125 185.296875 232.34375 185.214844 232.425781 185.101562 C 235.894531 181.03125 239.851562 178.121094 244.121094 176.148438 Z M 256.273438 226.5 C 256.742188 219.738281 255.234375 212.261719 246.6875 212.894531 C 240.652344 213.320312 235.417969 215.667969 231.542969 220.402344 C 225.105469 228.265625 220.667969 237.449219 215.414062 246.101562 C 215.257812 246.339844 215.082031 246.558594 214.914062 246.753906 C 216.191406 249.464844 217.386719 252.195312 218.519531 254.9375 C 221.855469 247.542969 224.929688 241.042969 228.160156 235.890625 C 232.042969 229.472656 236.136719 224.910156 239.851562 222.085938 C 240.828125 221.421875 241.617188 220.726562 242.554688 220.28125 C 243.4375 219.824219 244.257812 219.417969 245.003906 219.054688 C 246.605469 218.515625 247.871094 218.097656 248.910156 218.015625 C 251.039062 217.933594 251.882812 218.191406 251.941406 218.617188 C 252.003906 219.074219 251.257812 219.675781 249.636719 220.425781 C 248.835938 220.859375 247.890625 221.546875 246.707031 222.242188 C 245.585938 223.144531 244.257812 224.089844 242.824219 225.554688 C 240.007812 228.402344 236.695312 232.703125 233.308594 238.914062 C 230.828125 243.472656 227.773438 247.867188 225.726562 252.652344 C 224.566406 255.386719 224.386719 258.988281 221.59375 260.515625 C 223.015625 264.972656 230.816406 281.683594 226.027344 285.113281 C 243.582031 272.574219 254.789062 247.742188 256.273438 226.5 Z M 250.324219 173.988281 C 256.140625 172.585938 262.296875 172.65625 268.394531 173.84375 C 262.371094 144.9375 260.128906 112.34375 243.625 87.25 C 229.132812 65.191406 203.824219 49.703125 177.648438 46.078125 C 151.933594 42.527344 127.640625 52.675781 114.78125 73.4375 C 145.792969 57.128906 180.859375 57.648438 209.679688 80.894531 C 224.585938 92.933594 232.625 108.097656 237.527344 126.449219 C 240.207031 136.460938 242.480469 146.566406 245.972656 156.332031 C 248.089844 162.1875 249.597656 168.066406 250.324219 173.988281 Z M 284.121094 179.378906 C 281.429688 161.347656 279.300781 143.121094 275.09375 125.367188 C 270.316406 105.148438 261.632812 89.191406 247.550781 73.851562 C 224.046875 48.261719 193.65625 31.953125 158.007812 35.785156 C 130.109375 38.789062 101.027344 49.183594 87.910156 75.980469 C 80.246094 91.644531 75.050781 111.585938 73.546875 128.929688 C 72 146.566406 76.933594 162.707031 79.800781 179.722656 C 86.5625 174.726562 97.03125 172.398438 104.414062 172.046875 C 104.539062 172.046875 104.652344 172.046875 104.757812 172.023438 C 102.429688 141.726562 91.316406 108.210938 104.851562 79.191406 C 118.3125 50.304688 144.070312 36.066406 175.539062 39.316406 C 201.515625 42.039062 228.855469 56.402344 244.601562 77.425781 C 265.746094 105.625 267.949219 142.390625 275.394531 175.710938 C 278.367188 176.699219 281.304688 177.957031 284.121094 179.378906 Z M 282.3125 225.359375 C 286.382812 203.152344 278.160156 176.46875 250.074219 184.457031 C 249.917969 184.519531 249.75 184.5625 249.597656 184.613281 C 249.015625 185.019531 248.316406 185.234375 247.613281 185.234375 C 235.75 189.191406 229.519531 195.851562 222 206.195312 C 216.898438 213.175781 207.574219 220.320312 206.710938 229.386719 C 206.667969 229.90625 206.511719 230.332031 206.296875 230.726562 C 208.152344 233.761719 209.898438 236.847656 211.539062 239.941406 C 217.90625 228.765625 223.785156 215.472656 235.375 209.207031 C 244.296875 204.378906 256.960938 205.417969 261.707031 215.222656 C 267.105469 226.417969 259.027344 245.050781 255.089844 255.519531 C 249.355469 270.789062 240.695312 283.78125 226.652344 292.507812 C 226.445312 292.632812 226.226562 292.714844 226.007812 292.808594 C 225.664062 297.867188 224.605469 302.820312 222.675781 307.515625 C 230.078125 304.367188 237.507812 301.054688 243.199219 295.496094 C 249.292969 289.527344 254.726562 282.917969 259.503906 275.847656 C 269.734375 260.660156 278.980469 243.546875 282.3125 225.359375 Z M 315.664062 243.429688 C 317.875 220.726562 308.464844 202.769531 289.355469 190.074219 C 286.28125 188.050781 283 186.160156 279.601562 184.5625 C 284.660156 189.234375 288.191406 196.109375 289.613281 205.199219 C 293.144531 228.078125 281.472656 253.296875 269.601562 272.148438 C 263.722656 281.519531 257.179688 290.867188 249.230469 298.632812 C 240.332031 307.316406 228.957031 311.265625 218.042969 316.476562 C 221.335938 319.832031 225.1875 323.582031 229.414062 326.8125 L 229.34375 326.367188 C 236 325.183594 242.179688 322.398438 247.675781 319.105469 C 253.191406 315.78125 258.101562 311.929688 262.515625 307.941406 C 271.3125 299.953125 278.085938 291.40625 283.113281 283.242188 C 285.523438 279.210938 287.570312 274.902344 289.574219 270.984375 C 291.515625 267.039062 293.324219 263.332031 294.847656 259.777344 C 297.976562 252.738281 300.144531 246.410156 301.507812 240.804688 C 302.929688 235.226562 303.492188 230.375 303.730469 226.3125 C 303.761719 225.296875 303.832031 224.332031 303.875 223.425781 C 303.875 222.503906 303.855469 221.640625 303.855469 220.820312 C 303.894531 219.15625 303.792969 217.695312 303.707031 216.425781 C 303.636719 213.859375 303.355469 212.03125 303.355469 210.796875 C 303.3125 209.570312 303.417969 208.96875 303.636719 208.925781 C 303.855469 208.886719 304.175781 209.382812 304.621094 210.527344 C 305.058594 211.679688 305.722656 213.464844 306.203125 216.09375 C 306.480469 217.390625 306.785156 218.878906 306.9375 220.601562 C 307.042969 221.464844 307.125 222.367188 307.242188 223.332031 C 307.300781 224.289062 307.300781 225.296875 307.34375 226.375 C 307.449219 230.65625 307.1875 235.828125 305.984375 241.800781 C 304.820312 247.761719 302.796875 254.503906 299.804688 261.878906 C 298.339844 265.574219 296.574219 269.40625 294.695312 273.457031 C 292.742188 277.507812 290.871094 281.726562 288.234375 286.273438 C 285.679688 290.742188 282.550781 295.132812 279.019531 299.570312 C 275.46875 303.984375 271.4375 308.398438 266.804688 312.644531 C 262.171875 316.882812 256.980469 320.996094 250.988281 324.609375 C 246.605469 327.269531 241.734375 329.660156 236.34375 331.320312 C 241.773438 334.175781 247.527344 335.601562 253.230469 333.96875 C 263.980469 330.90625 274.386719 323.5 282.3125 315.761719 C 300.625 297.867188 313.160156 268.742188 315.664062 243.429688 Z M 316.972656 210.433594 C 323.109375 222.109375 323.390625 233.71875 321.6875 246.683594 C 317.875 275.617188 303.191406 308.523438 279.5625 326.574219 C 270.097656 333.792969 257.199219 343.222656 244.445312 340.492188 C 232.125 337.863281 222.300781 329.898438 213.597656 321.152344 C 212.847656 321.921875 212.070312 322.679688 211.230469 323.4375 C 208.820312 325.566406 206.273438 327.757812 203.648438 329.9375 C 198.753906 336.835938 191.566406 341.011719 183.164062 343.484375 C 183.082031 343.523438 182.96875 343.554688 182.882812 343.597656 C 174.597656 348.695312 163.992188 349 154.476562 346.785156 C 154.300781 346.785156 154.101562 346.785156 153.9375 346.785156 C 153.117188 346.785156 152.472656 346.527344 151.972656 346.140625 C 150.644531 345.746094 149.324219 345.34375 148.078125 344.863281 C 133.683594 339.566406 119.972656 330.882812 109.453125 319.613281 C 97.050781 306.289062 83.476562 289.640625 75.570312 273.136719 C 69.132812 259.65625 62.289062 239.496094 71.738281 225.617188 C 72 225.253906 72.257812 224.933594 72.519531 224.589844 C 72.558594 224.289062 72.621094 224.007812 72.738281 223.6875 C 77.035156 213 76.757812 205.074219 74.367188 194.261719 C 73.679688 191.175781 73.347656 188.746094 74.304688 186.242188 C 71.398438 165.242188 64.273438 145.859375 67.648438 124.339844 C 70.453125 106.527344 74.410156 86.210938 83.570312 70.382812 C 98.472656 44.636719 125.9375 32.773438 154.644531 29.699219 C 191.503906 25.730469 224.804688 39.535156 249.71875 66.675781 C 263.015625 81.152344 274.492188 96.558594 279.425781 115.917969 C 285.023438 137.882812 287.609375 160.402344 291.140625 182.753906 C 291.191406 183.011719 291.191406 183.273438 291.164062 183.53125 C 291.660156 183.855469 292.136719 184.175781 292.605469 184.5 C 302.214844 191.332031 311.4375 199.859375 316.972656 210.433594 " fill-opacity="1" fill-rule="nonzero"/></svg>