<svg xmlns="http://www.w3.org/2000/svg" xmlns:xlink="http://www.w3.org/1999/xlink" width="69" zoomAndPan="magnify" viewBox="0 0 375 374.999991" height="69" preserveAspectRatio="xMidYMid meet" version="1.0"><defs><clipPath id="ae4b1b85e5"><path d="M 62 121 L 329 121 L 329 324 L 62 324 Z M 62 121 " clip-rule="nonzero"/></clipPath><clipPath id="0779257b32"><path d="M 19.210938 148.445312 L 262.292969 45.460938 L 341.875 233.296875 L 98.789062 336.285156 Z M 19.210938 148.445312 " clip-rule="nonzero"/></clipPath><clipPath id="3cedf8de87"><path d="M 262.007812 45.582031 L 18.921875 148.570312 L 98.503906 336.40625 L 341.585938 233.421875 Z M 262.007812 45.582031 " clip-rule="nonzero"/></clipPath><clipPath id="f8d0095d96"><path d="M 112 239 L 134 239 L 134 261 L 112 261 Z M 112 239 " clip-rule="nonzero"/></clipPath><clipPath id="3f039af921"><path d="M 19.210938 148.445312 L 262.292969 45.460938 L 341.875 233.296875 L 98.789062 336.285156 Z M 19.210938 148.445312 " clip-rule="nonzero"/></clipPath><clipPath id="884eb9aaea"><path d="M 262.007812 45.582031 L 18.921875 148.570312 L 98.503906 336.40625 L 341.585938 233.421875 Z M 262.007812 45.582031 " clip-rule="nonzero"/></clipPath><clipPath id="994a2a9470"><path d="M 85 250 L 107 250 L 107 272 L 85 272 Z M 85 250 " clip-rule="nonzero"/></clipPath><clipPath id="9ca2638285"><path d="M 19.210938 148.445312 L 262.292969 45.460938 L 341.875 233.296875 L 98.789062 336.285156 Z M 19.210938 148.445312 " clip-rule="nonzero"/></clipPath><clipPath id="3eee5162f7"><path d="M 262.007812 45.582031 L 18.921875 148.570312 L 98.503906 336.40625 L 341.585938 233.421875 Z M 262.007812 45.582031 " clip-rule="nonzero"/></clipPath><clipPath id="44a0e768d4"><path d="M 123 266 L 145 266 L 145 287 L 123 287 Z M 123 266 " clip-rule="nonzero"/></clipPath><clipPath id="7031feaa3e"><path d="M 19.210938 148.445312 L 262.292969 45.460938 L 341.875 233.296875 L 98.789062 336.285156 Z M 19.210938 148.445312 " clip-rule="nonzero"/></clipPath><clipPath id="08dff84192"><path d="M 262.007812 45.582031 L 18.921875 148.570312 L 98.503906 336.40625 L 341.585938 233.421875 Z M 262.007812 45.582031 " clip-rule="nonzero"/></clipPath><clipPath id="fb3aca74d8"><path d="M 97 277 L 118 277 L 118 298 L 97 298 Z M 97 277 " clip-rule="nonzero"/></clipPath><clipPath id="46f475a233"><path d="M 19.210938 148.445312 L 262.292969 45.460938 L 341.875 233.296875 L 98.789062 336.285156 Z M 19.210938 148.445312 " clip-rule="nonzero"/></clipPath><clipPath id="fe889c4c14"><path d="M 262.007812 45.582031 L 18.921875 148.570312 L 98.503906 336.40625 L 341.585938 233.421875 Z M 262.007812 45.582031 " clip-rule="nonzero"/></clipPath><clipPath id="3b9ffedcbb"><path d="M 140 188 L 265 188 L 265 276 L 140 276 Z M 140 188 " clip-rule="nonzero"/></clipPath><clipPath id="a387131166"><path d="M 19.210938 148.445312 L 262.292969 45.460938 L 341.875 233.296875 L 98.789062 336.285156 Z M 19.210938 148.445312 " clip-rule="nonzero"/></clipPath><clipPath id="ea56fd2344"><path d="M 262.007812 45.582031 L 18.921875 148.570312 L 98.503906 336.40625 L 341.585938 233.421875 Z M 262.007812 45.582031 " clip-rule="nonzero"/></clipPath><clipPath id="ba80778c44"><path d="M 153 172 L 217 172 L 217 210 L 153 210 Z M 153 172 " clip-rule="nonzero"/></clipPath><clipPath id="1367e99da2"><path d="M 19.210938 148.445312 L 262.292969 45.460938 L 341.875 233.296875 L 98.789062 336.285156 Z M 19.210938 148.445312 " clip-rule="nonzero"/></clipPath><clipPath id="9dcafb0689"><path d="M 262.007812 45.582031 L 18.921875 148.570312 L 98.503906 336.40625 L 341.585938 233.421875 Z M 262.007812 45.582031 " clip-rule="nonzero"/></clipPath><clipPath id="68275a57b3"><path d="M 224 255 L 240 255 L 240 265 L 224 265 Z M 224 255 " clip-rule="nonzero"/></clipPath><clipPath id="5863e1a373"><path d="M 19.210938 148.445312 L 262.292969 45.460938 L 341.875 233.296875 L 98.789062 336.285156 Z M 19.210938 148.445312 " clip-rule="nonzero"/></clipPath><clipPath id="6567450d1c"><path d="M 262.007812 45.582031 L 18.921875 148.570312 L 98.503906 336.40625 L 341.585938 233.421875 Z M 262.007812 45.582031 " clip-rule="nonzero"/></clipPath><clipPath id="3b13955030"><path d="M 193 267 L 210 267 L 210 277 L 193 277 Z M 193 267 " clip-rule="nonzero"/></clipPath><clipPath id="322e7f4179"><path d="M 19.210938 148.445312 L 262.292969 45.460938 L 341.875 233.296875 L 98.789062 336.285156 Z M 19.210938 148.445312 " clip-rule="nonzero"/></clipPath><clipPath id="1fdd3fc585"><path d="M 262.007812 45.582031 L 18.921875 148.570312 L 98.503906 336.40625 L 341.585938 233.421875 Z M 262.007812 45.582031 " clip-rule="nonzero"/></clipPath><clipPath id="87fea0fc82"><path d="M 265 176 L 306 176 L 306 217 L 265 217 Z M 265 176 " clip-rule="nonzero"/></clipPath><clipPath id="ff02b7e322"><path d="M 19.210938 148.445312 L 262.292969 45.460938 L 341.875 233.296875 L 98.789062 336.285156 Z M 19.210938 148.445312 " clip-rule="nonzero"/></clipPath><clipPath id="249c547a13"><path d="M 262.007812 45.582031 L 18.921875 148.570312 L 98.503906 336.40625 L 341.585938 233.421875 Z M 262.007812 45.582031 " clip-rule="nonzero"/></clipPath></defs><g clip-path="url(#ae4b1b85e5)"><g clip-path="url(#0779257b32)"><g clip-path="url(#3cedf8de87)"><path fill="#ffffff" d="M 87.855469 204.429688 L 88.300781 204.242188 C 87.117188 197.054688 90.820312 189.777344 97.699219 186.863281 L 106.246094 183.242188 C 113.121094 180.328125 120.925781 182.730469 125.265625 188.578125 L 157.894531 174.757812 C 156.128906 170.59375 158.09375 165.742188 162.257812 163.976562 L 169.769531 160.796875 C 169.746094 160.75 169.710938 160.71875 169.695312 160.667969 C 166.597656 151.640625 159.113281 142.121094 147.402344 142.480469 C 140.652344 142.6875 133.363281 145.917969 126.308594 149.039062 C 112.941406 154.960938 97.8125 161.660156 84.683594 147.304688 C 79.648438 141.789062 76.8125 127.5625 83.082031 121.742188 C 83.910156 120.976562 85.214844 121.019531 85.984375 121.851562 C 86.757812 122.683594 86.710938 123.984375 85.878906 124.757812 C 81.523438 128.796875 83.914062 140.363281 87.71875 144.53125 C 98.851562 156.703125 111.382812 151.152344 124.644531 145.28125 C 132.054688 142 139.722656 138.601562 147.277344 138.371094 C 161.164062 137.945312 169.929688 148.824219 173.53125 159.203125 L 173.613281 159.167969 C 177.777344 157.402344 182.628906 159.363281 184.394531 163.53125 L 217.019531 149.707031 C 215.839844 142.519531 219.539062 135.242188 226.417969 132.328125 L 234.964844 128.707031 C 241.839844 125.796875 249.644531 128.195312 253.988281 134.046875 L 254.433594 133.855469 C 275.253906 125.035156 299.507812 134.855469 308.332031 155.675781 L 325.171875 195.429688 C 333.992188 216.25 324.175781 240.503906 303.351562 249.324219 L 136.773438 319.898438 C 115.953125 328.722656 91.699219 318.902344 82.875 298.078125 L 66.035156 258.328125 C 57.214844 237.507812 67.03125 213.253906 87.855469 204.429688 Z M 109.453125 190.8125 L 100.90625 194.433594 C 98.25 195.558594 96.582031 198.070312 96.324219 200.84375 L 117.242188 191.980469 C 115.074219 190.238281 112.109375 189.691406 109.453125 190.8125 Z M 175.21875 162.953125 L 163.859375 167.765625 C 161.773438 168.648438 160.792969 171.066406 161.679688 173.152344 L 180.609375 165.132812 C 179.722656 163.046875 177.304688 162.066406 175.21875 162.953125 Z M 238.171875 136.28125 L 229.625 139.902344 C 226.96875 141.027344 225.300781 143.535156 225.042969 146.308594 L 245.960938 137.445312 C 243.792969 135.703125 240.828125 135.15625 238.171875 136.28125 Z M 90.449219 294.871094 C 97.523438 311.570312 116.867188 319.402344 133.566406 312.328125 L 300.144531 241.753906 C 316.84375 234.679688 324.675781 215.335938 317.601562 198.636719 L 300.757812 158.882812 C 293.683594 142.183594 274.339844 134.351562 257.640625 141.429688 L 91.0625 212.003906 C 74.363281 219.078125 66.53125 238.421875 73.605469 255.121094 Z M 90.449219 294.871094 " fill-opacity="1" fill-rule="nonzero"/></g></g></g><g clip-path="url(#f8d0095d96)"><g clip-path="url(#3f039af921)"><g clip-path="url(#884eb9aaea)"><path fill="#ffffff" d="M 118.75 240.460938 C 123.976562 238.246094 130.007812 240.6875 132.222656 245.917969 C 134.4375 251.140625 131.996094 257.175781 126.769531 259.390625 C 121.542969 261.605469 115.507812 259.160156 113.292969 253.9375 C 111.078125 248.707031 113.523438 242.675781 118.75 240.460938 Z M 125.164062 255.605469 C 128.296875 254.277344 129.765625 250.652344 128.4375 247.523438 C 127.109375 244.390625 123.484375 242.921875 120.351562 244.246094 C 117.222656 245.574219 115.753906 249.199219 117.082031 252.332031 C 118.40625 255.464844 122.03125 256.929688 125.164062 255.605469 Z M 125.164062 255.605469 " fill-opacity="1" fill-rule="nonzero"/></g></g></g><g clip-path="url(#994a2a9470)"><g clip-path="url(#9ca2638285)"><g clip-path="url(#3eee5162f7)"><path fill="#ffffff" d="M 92.246094 251.6875 C 97.476562 249.472656 103.507812 251.914062 105.722656 257.144531 C 107.9375 262.371094 105.496094 268.402344 100.265625 270.617188 C 95.042969 272.832031 89.007812 270.390625 86.792969 265.164062 C 84.578125 259.933594 87.023438 253.902344 92.246094 251.6875 Z M 98.664062 266.832031 C 101.792969 265.503906 103.261719 261.878906 101.9375 258.75 C 100.609375 255.617188 96.984375 254.148438 93.851562 255.472656 C 90.71875 256.800781 89.253906 260.429688 90.578125 263.5625 C 91.90625 266.691406 95.53125 268.160156 98.664062 266.832031 Z M 98.664062 266.832031 " fill-opacity="1" fill-rule="nonzero"/></g></g></g><g clip-path="url(#44a0e768d4)"><g clip-path="url(#7031feaa3e)"><g clip-path="url(#08dff84192)"><path fill="#ffffff" d="M 129.976562 266.960938 C 135.203125 264.746094 141.234375 267.1875 143.453125 272.417969 C 145.664062 277.644531 143.222656 283.675781 137.996094 285.890625 C 132.773438 288.105469 126.734375 285.664062 124.523438 280.4375 C 122.304688 275.207031 124.75 269.175781 129.976562 266.960938 Z M 136.390625 282.105469 C 139.523438 280.777344 140.992188 277.152344 139.664062 274.023438 C 138.339844 270.890625 134.710938 269.421875 131.578125 270.746094 C 128.449219 272.074219 126.980469 275.703125 128.308594 278.835938 C 129.632812 281.964844 133.261719 283.433594 136.390625 282.105469 Z M 136.390625 282.105469 " fill-opacity="1" fill-rule="nonzero"/></g></g></g><g clip-path="url(#fb3aca74d8)"><g clip-path="url(#46f475a233)"><g clip-path="url(#fe889c4c14)"><path fill="#ffffff" d="M 103.476562 278.191406 C 108.703125 275.976562 114.734375 278.417969 116.949219 283.644531 C 119.164062 288.871094 116.722656 294.902344 111.496094 297.117188 C 106.269531 299.332031 100.234375 296.890625 98.019531 291.667969 C 95.804688 286.4375 98.25 280.402344 103.476562 278.191406 Z M 109.890625 293.332031 C 113.023438 292.007812 114.492188 288.382812 113.164062 285.25 C 111.835938 282.117188 108.210938 280.648438 105.078125 281.976562 C 101.949219 283.300781 100.480469 286.929688 101.808594 290.0625 C 103.132812 293.191406 106.757812 294.660156 109.890625 293.332031 Z M 109.890625 293.332031 " fill-opacity="1" fill-rule="nonzero"/></g></g></g><g clip-path="url(#3b9ffedcbb)"><g clip-path="url(#a387131166)"><g clip-path="url(#ea56fd2344)"><path fill="#ffffff" d="M 150.125 224.933594 L 233.414062 189.648438 C 241.746094 186.117188 251.445312 190.046875 254.972656 198.375 L 262.992188 217.304688 C 266.523438 225.632812 262.597656 235.335938 254.265625 238.863281 L 170.976562 274.152344 C 162.648438 277.679688 152.945312 273.75 149.417969 265.421875 L 141.398438 246.492188 C 137.871094 238.164062 141.796875 228.464844 150.125 224.933594 Z M 153.203125 263.820312 C 155.859375 270.082031 163.109375 273.019531 169.375 270.363281 L 252.664062 235.078125 C 258.925781 232.425781 261.863281 225.171875 259.207031 218.910156 L 251.1875 199.980469 C 248.535156 193.714844 241.28125 190.78125 235.019531 193.433594 L 151.730469 228.71875 C 145.46875 231.375 142.53125 238.628906 145.183594 244.890625 Z M 153.203125 263.820312 " fill-opacity="1" fill-rule="nonzero"/></g></g></g><g clip-path="url(#ba80778c44)"><g clip-path="url(#1367e99da2)"><g clip-path="url(#9dcafb0689)"><path fill="#ffffff" d="M 211.277344 190.097656 L 165.847656 209.34375 C 161.683594 211.109375 156.832031 209.144531 155.066406 204.980469 L 154.265625 203.085938 C 152.5 198.921875 154.464844 194.070312 158.628906 192.308594 L 204.058594 173.058594 C 208.226562 171.296875 213.074219 173.257812 214.839844 177.421875 L 215.640625 179.316406 C 217.40625 183.480469 215.441406 188.332031 211.277344 190.097656 Z M 181.054688 187.269531 L 160.234375 196.09375 C 158.148438 196.976562 157.167969 199.394531 158.050781 201.484375 L 158.855469 203.375 C 159.738281 205.464844 162.15625 206.441406 164.242188 205.558594 L 185.066406 196.734375 Z M 211.054688 179.027344 C 210.167969 176.941406 207.75 175.960938 205.664062 176.84375 L 184.84375 185.667969 L 188.851562 195.132812 L 209.675781 186.308594 C 211.761719 185.425781 212.742188 183.007812 211.855469 180.921875 Z M 211.054688 179.027344 " fill-opacity="1" fill-rule="nonzero"/></g></g></g><g clip-path="url(#68275a57b3)"><g clip-path="url(#5863e1a373)"><g clip-path="url(#6567450d1c)"><path fill="#ffffff" d="M 225.292969 260.070312 L 236.652344 255.257812 C 237.699219 254.8125 238.902344 255.304688 239.347656 256.347656 C 239.789062 257.394531 239.300781 258.601562 238.257812 259.042969 L 226.898438 263.855469 C 225.851562 264.296875 224.644531 263.808594 224.203125 262.765625 C 223.761719 261.71875 224.25 260.511719 225.292969 260.070312 Z M 225.292969 260.070312 " fill-opacity="1" fill-rule="nonzero"/></g></g></g><g clip-path="url(#3b13955030)"><g clip-path="url(#322e7f4179)"><g clip-path="url(#1fdd3fc585)"><path fill="#ffffff" d="M 195.007812 272.902344 L 206.363281 268.089844 C 207.410156 267.644531 208.617188 268.136719 209.058594 269.179688 C 209.503906 270.226562 209.015625 271.433594 207.96875 271.875 L 196.613281 276.6875 C 195.566406 277.128906 194.359375 276.640625 193.917969 275.597656 C 193.472656 274.550781 193.960938 273.34375 195.007812 272.902344 Z M 195.007812 272.902344 " fill-opacity="1" fill-rule="nonzero"/></g></g></g><g clip-path="url(#87fea0fc82)"><g clip-path="url(#ff02b7e322)"><g clip-path="url(#249c547a13)"><path fill="#ffffff" d="M 269.25 195.375 L 275.683594 192.648438 L 272.957031 186.207031 C 271.644531 183.113281 272.636719 179.730469 275.167969 178.65625 L 279.753906 176.714844 C 282.292969 175.636719 285.414062 177.277344 286.726562 180.375 L 289.453125 186.8125 L 296.453125 183.847656 C 299.238281 182.667969 302.371094 183.765625 303.441406 186.296875 L 305.386719 190.886719 C 306.460938 193.417969 305.070312 196.433594 302.285156 197.613281 L 295.285156 200.578125 L 298.25 207.578125 C 299.429688 210.363281 298.332031 213.496094 295.800781 214.570312 L 291.210938 216.515625 C 288.675781 217.585938 285.664062 216.199219 284.480469 213.410156 L 281.515625 206.410156 L 275.082031 209.136719 C 271.984375 210.449219 268.601562 209.460938 267.527344 206.925781 L 265.585938 202.339844 C 264.511719 199.804688 266.152344 196.6875 269.25 195.375 Z M 271.3125 205.324219 C 271.371094 205.457031 272.265625 205.867188 273.476562 205.351562 L 283.699219 201.023438 L 288.269531 211.804688 C 288.59375 212.578125 289.277344 212.867188 289.605469 212.730469 L 294.195312 210.785156 C 294.523438 210.644531 294.789062 209.953125 294.464844 209.179688 L 289.894531 198.394531 L 293.679688 196.792969 L 300.679688 193.828125 C 301.449219 193.5 301.738281 192.816406 301.601562 192.492188 L 299.65625 187.898438 C 299.515625 187.574219 298.824219 187.308594 298.054688 187.636719 L 287.273438 192.203125 L 282.9375 181.976562 C 282.425781 180.765625 281.511719 180.433594 281.359375 180.5 L 276.773438 182.441406 C 276.636719 182.5 276.230469 183.394531 276.742188 184.601562 L 281.074219 194.828125 L 270.851562 199.160156 C 269.640625 199.671875 269.3125 200.601562 269.371094 200.734375 Z M 271.3125 205.324219 " fill-opacity="1" fill-rule="nonzero"/></g></g></g></svg>