<svg xmlns="http://www.w3.org/2000/svg" xmlns:xlink="http://www.w3.org/1999/xlink" width="69" zoomAndPan="magnify" viewBox="0 0 375 374.999991" height="69" preserveAspectRatio="xMidYMid meet" version="1.0"><defs><clipPath id="45e9bdab20"><path d="M 132 80 L 249 80 L 249 364.359375 L 132 364.359375 Z M 132 80 " clip-rule="nonzero"/></clipPath><clipPath id="37da49f066"><path d="M 37.5 10.359375 L 344 10.359375 L 344 300 L 37.5 300 Z M 37.5 10.359375 " clip-rule="nonzero"/></clipPath></defs><path fill="#ffffff" d="M 190.75 250.390625 C 183.738281 250.390625 178.035156 256.09375 178.035156 263.105469 C 178.035156 270.113281 183.738281 275.820312 190.75 275.820312 C 197.757812 275.820312 203.460938 270.113281 203.460938 263.105469 C 203.460938 256.09375 197.757812 250.390625 190.75 250.390625 Z M 190.75 270.191406 C 186.839844 270.191406 183.660156 267.015625 183.660156 263.105469 C 183.660156 259.195312 186.839844 256.015625 190.75 256.015625 C 194.660156 256.015625 197.835938 259.195312 197.835938 263.105469 C 197.835938 267.015625 194.660156 270.191406 190.75 270.191406 Z M 190.75 270.191406 " fill-opacity="1" fill-rule="nonzero"/><path fill="#ffffff" d="M 190.75 235.371094 C 196.734375 235.371094 201.605469 230.484375 201.605469 224.484375 C 201.605469 218.496094 196.738281 213.625 190.75 213.625 C 184.761719 213.625 179.890625 218.496094 179.890625 224.484375 C 179.890625 230.484375 184.761719 235.371094 190.75 235.371094 Z M 190.75 219.25 C 193.632812 219.25 195.980469 221.597656 195.980469 224.484375 C 195.980469 227.382812 193.632812 229.742188 190.75 229.742188 C 187.863281 229.742188 185.515625 227.382812 185.515625 224.484375 C 185.515625 221.601562 187.867188 219.25 190.75 219.25 Z M 190.75 219.25 " fill-opacity="1" fill-rule="nonzero"/><path fill="#ffffff" d="M 190.75 240.742188 C 178.417969 240.742188 168.386719 250.773438 168.386719 263.105469 C 168.386719 275.4375 178.417969 285.464844 190.75 285.464844 C 203.078125 285.464844 213.109375 275.4375 213.109375 263.105469 C 213.109375 250.777344 203.078125 240.742188 190.75 240.742188 Z M 190.75 279.839844 C 181.519531 279.839844 174.011719 272.332031 174.011719 263.105469 C 174.011719 253.875 181.519531 246.367188 190.75 246.367188 C 199.976562 246.367188 207.484375 253.875 207.484375 263.105469 C 207.484375 272.332031 199.976562 279.839844 190.75 279.839844 Z M 190.75 279.839844 " fill-opacity="1" fill-rule="nonzero"/><g clip-path="url(#45e9bdab20)"><path fill="#ffffff" d="M 246.019531 197.675781 L 243.039062 197.675781 L 243.039062 112.757812 C 243.039062 94.734375 228.390625 80.070312 210.382812 80.070312 L 171.113281 80.070312 C 153.105469 80.070312 138.457031 94.734375 138.457031 112.757812 L 138.457031 197.675781 L 135.476562 197.675781 C 133.921875 197.675781 132.664062 198.9375 132.664062 200.488281 L 132.664062 271.347656 C 132.664062 286.097656 144.664062 298.097656 159.414062 298.097656 L 160.230469 298.097656 C 166.355469 298.097656 171.339844 303.09375 171.339844 309.234375 L 171.339844 330.839844 C 171.339844 333.941406 168.816406 336.464844 165.714844 336.464844 L 159.046875 336.464844 C 148.890625 336.464844 140.625 344.726562 140.625 354.886719 L 140.625 361.890625 C 140.625 363.445312 141.882812 364.707031 143.4375 364.707031 L 238.0625 364.707031 C 239.613281 364.707031 240.875 363.445312 240.875 361.890625 L 240.875 354.886719 C 240.875 344.726562 232.609375 336.464844 222.449219 336.464844 L 215.78125 336.464844 C 212.679688 336.464844 210.15625 333.941406 210.15625 330.839844 L 210.15625 310.023438 C 210.15625 303.445312 215.492188 298.097656 222.082031 298.097656 C 236.835938 298.097656 248.835938 286.097656 248.835938 271.347656 L 248.835938 200.488281 C 248.835938 198.9375 247.574219 197.675781 246.019531 197.675781 Z M 144.082031 112.757812 C 144.082031 97.832031 156.210938 85.695312 171.113281 85.695312 L 210.382812 85.695312 C 225.289062 85.695312 237.414062 97.832031 237.414062 112.757812 L 237.414062 197.675781 L 232.097656 197.675781 L 232.097656 111.519531 C 232.097656 99.714844 222.496094 90.113281 210.691406 90.113281 L 170.804688 90.113281 C 159.003906 90.113281 149.398438 99.714844 149.398438 111.519531 L 149.398438 197.675781 L 144.082031 197.675781 Z M 204.53125 319.277344 L 176.964844 319.277344 L 176.964844 315.3125 L 204.53125 315.3125 Z M 215.78125 342.089844 L 222.449219 342.089844 C 229.507812 342.089844 235.25 347.832031 235.25 354.886719 L 235.25 359.078125 L 146.25 359.078125 L 146.25 354.886719 C 146.25 347.832031 151.988281 342.089844 159.046875 342.089844 L 165.714844 342.089844 C 171.917969 342.089844 176.964844 337.042969 176.964844 330.839844 L 176.964844 324.902344 L 204.53125 324.902344 L 204.53125 330.839844 C 204.53125 337.042969 209.578125 342.089844 215.78125 342.089844 Z M 243.207031 271.347656 C 243.207031 282.992188 233.730469 292.46875 222.054688 292.46875 C 212.507812 292.46875 204.730469 300.164062 204.546875 309.683594 L 176.964844 309.683594 L 176.964844 309.234375 C 176.964844 299.992188 169.457031 292.46875 160.230469 292.46875 L 159.414062 292.46875 C 147.765625 292.46875 138.289062 282.992188 138.289062 271.347656 L 138.289062 203.300781 L 243.207031 203.300781 Z M 243.207031 271.347656 " fill-opacity="1" fill-rule="nonzero"/></g><g clip-path="url(#37da49f066)"><path fill="#ffffff" d="M 190.75 10.285156 C 106.246094 10.285156 37.503906 79.027344 37.503906 163.527344 C 37.503906 220.949219 69.191406 273.09375 120.195312 299.605469 C 121.066406 300.058594 122.113281 300.023438 122.953125 299.515625 C 123.792969 299.003906 124.304688 298.097656 124.304688 297.113281 L 124.304688 274.550781 C 124.304688 273.582031 123.808594 272.683594 122.984375 272.167969 C 85.261719 248.566406 62.734375 207.953125 62.734375 163.527344 C 62.734375 92.941406 120.164062 35.515625 190.75 35.515625 C 261.335938 35.515625 318.761719 92.941406 318.761719 163.527344 C 318.761719 207.953125 296.238281 248.566406 258.511719 272.171875 C 257.6875 272.683594 257.1875 273.585938 257.1875 274.554688 L 257.1875 297.113281 C 257.1875 298.097656 257.699219 299.007812 258.542969 299.519531 C 258.988281 299.789062 259.496094 299.925781 260 299.925781 C 260.445312 299.925781 260.890625 299.820312 261.296875 299.609375 C 312.308594 273.09375 343.992188 220.949219 343.992188 163.53125 C 343.992188 79.027344 275.25 10.285156 190.75 10.285156 Z M 190.75 10.285156 " fill-opacity="1" fill-rule="nonzero"/></g><path fill="#ffffff" d="M 257.914062 216.296875 C 257.445312 216.816406 257.1875 217.484375 257.1875 218.183594 L 257.1875 240.515625 C 257.1875 241.601562 257.816406 242.59375 258.792969 243.058594 C 259.179688 243.238281 259.589844 243.328125 260 243.328125 C 260.636719 243.328125 261.269531 243.113281 261.777344 242.695312 C 288 221.28125 303.039062 189.585938 303.039062 155.738281 C 303.039062 93.820312 252.664062 43.445312 190.75 43.445312 C 128.832031 43.445312 78.457031 93.820312 78.457031 155.738281 C 78.457031 189.585938 93.496094 221.28125 119.714844 242.695312 C 120.554688 243.386719 121.714844 243.527344 122.699219 243.058594 C 123.679688 242.59375 124.304688 241.605469 124.304688 240.519531 L 124.304688 218.183594 C 124.304688 217.488281 124.046875 216.820312 123.578125 216.300781 C 108.574219 199.679688 100.3125 178.171875 100.3125 155.738281 C 100.3125 105.859375 140.878906 65.277344 190.746094 65.277344 C 240.613281 65.277344 281.179688 105.859375 281.179688 155.738281 C 281.183594 178.171875 272.917969 199.679688 257.914062 216.296875 Z M 257.914062 216.296875 " fill-opacity="1" fill-rule="nonzero"/></svg>