<svg xmlns="http://www.w3.org/2000/svg" xmlns:xlink="http://www.w3.org/1999/xlink" width="69" zoomAndPan="magnify" viewBox="0 0 375 374.999991" height="69" preserveAspectRatio="xMidYMid meet" version="1.0"><defs><clipPath id="b69574d07d"><path d="M 0 0 L 341.921875 0 L 341.921875 375 L 0 375 Z M 0 0 " clip-rule="nonzero"/></clipPath></defs><g clip-path="url(#b69574d07d)"><path fill="#ffffff" d="M 259.507812 68.0625 C 257.664062 64.917969 257.253906 61.160156 257.324219 57.539062 C 257.527344 44.691406 263.539062 31.574219 274.609375 25.011719 C 274.269531 26.445312 273.859375 27.949219 273.515625 29.382812 C 279.324219 20.910156 281.582031 10.113281 279.597656 0.00390625 C 288.140625 4.511719 293.46875 13.738281 295.109375 23.300781 C 296.816406 32.800781 295.316406 42.640625 292.992188 52.003906 C 291.351562 58.699219 289.234375 65.601562 284.246094 70.316406 C 280.28125 74.144531 275.019531 76.671875 270.511719 75.167969 C 268.9375 74.894531 267.367188 74.484375 265.796875 73.871094 C 265.25 73.664062 264.632812 73.390625 264.152344 73.050781 C 262.242188 71.886719 260.601562 69.90625 259.507812 68.0625 Z M 218.164062 245.046875 C 219.328125 240.058594 220.285156 235.75 221.445312 230.902344 C 221.992188 228.578125 222.542969 226.253906 223.085938 223.929688 C 223.839844 220.855469 224.523438 217.78125 225.273438 214.773438 C 228.964844 199.535156 232.3125 186.210938 235.796875 172.816406 C 236 173.023438 236.34375 173.160156 236.683594 173.226562 L 252.8125 176.917969 C 253.152344 176.984375 253.425781 176.984375 253.769531 176.917969 C 252.945312 181.152344 252.332031 184.296875 251.445312 188.667969 C 251.171875 190.105469 250.832031 191.609375 250.554688 193.109375 C 250.214844 194.683594 249.875 196.253906 249.597656 197.894531 C 249.050781 200.492188 248.507812 203.089844 247.960938 205.753906 C 247.207031 209.511719 246.386719 213.269531 245.570312 217.097656 C 245.15625 218.941406 244.75 220.785156 244.339844 222.632812 C 243.859375 224.75 243.449219 226.871094 242.972656 228.988281 C 242.5625 230.765625 242.152344 232.609375 241.742188 234.453125 C 241.058594 237.394531 240.441406 240.398438 239.757812 243.40625 C 239.210938 245.730469 238.871094 247.4375 238.324219 249.761719 C 237.914062 251.605469 237.984375 251.195312 237.574219 253.039062 C 236.546875 253.246094 235.453125 253.3125 234.429688 253.3125 C 234.292969 253.3125 234.15625 253.3125 234.019531 253.3125 C 228.757812 253.3125 224.109375 251.195312 220.351562 248.050781 C 219.601562 247.4375 218.78125 246.617188 218.097656 245.867188 C 218.164062 244.707031 217.894531 246.136719 218.164062 245.046875 Z M 219.738281 313.996094 C 220.761719 313.855469 221.789062 313.652344 222.8125 313.449219 C 221.992188 316.730469 222.199219 315.703125 221.378906 318.847656 C 220.761719 321.171875 220.214844 323.425781 219.601562 325.679688 C 205.933594 377.542969 194.457031 412.53125 190.558594 411.644531 C 190.355469 411.574219 190.21875 411.503906 190.082031 411.300781 C 190.011719 411.234375 189.945312 411.097656 189.875 410.890625 C 189.742188 410.617188 189.671875 410.34375 189.601562 409.9375 C 187.960938 402.554688 192.269531 371.460938 200.535156 328.273438 C 200.949219 326.089844 201.355469 323.902344 201.832031 321.714844 C 202.449219 318.503906 202.039062 319.460938 202.722656 316.113281 C 203.679688 316.046875 204.703125 315.90625 205.660156 315.839844 C 210.375 315.363281 215.089844 314.746094 219.738281 313.996094 Z M 253.496094 174.113281 L 237.367188 170.425781 C 237.027344 170.355469 236.753906 170.21875 236.480469 170.015625 C 235.933594 169.605469 235.660156 168.988281 235.796875 168.445312 L 262.308594 79.40625 C 262.445312 78.925781 263.0625 78.652344 263.675781 78.789062 L 269.484375 80.15625 C 270.097656 80.292969 270.578125 80.839844 270.441406 81.320312 L 255.613281 173.023438 C 255.542969 173.636719 254.996094 174.046875 254.3125 174.183594 C 254.109375 174.183594 253.835938 174.183594 253.496094 174.113281 Z M 174.640625 132.363281 C 159.125 132.433594 146.484375 123.070312 146.417969 111.523438 C 146.347656 99.972656 158.921875 90.542969 174.433594 90.476562 C 189.945312 90.40625 202.585938 99.769531 202.585938 111.316406 C 202.722656 122.863281 190.148438 132.296875 174.640625 132.363281 Z M 170.402344 300.804688 C 154.890625 300.464844 142.523438 290.898438 142.726562 279.28125 C 142.929688 267.734375 155.710938 258.574219 171.222656 258.917969 C 186.730469 259.257812 199.101562 268.828125 198.898438 280.441406 C 198.691406 291.992188 185.914062 301.148438 170.402344 300.804688 Z M 101.792969 147.941406 C 87.785156 154.640625 72.410156 151.632812 67.421875 141.179688 C 62.433594 130.722656 69.746094 116.851562 83.753906 110.15625 C 97.761719 103.457031 113.136719 106.464844 118.125 116.921875 C 123.113281 127.308594 115.804688 141.246094 101.792969 147.941406 Z M 111.359375 271.214844 C 105.484375 281.195312 89.835938 282.835938 76.511719 274.90625 C 63.117188 266.980469 57.105469 252.496094 62.980469 242.585938 C 68.855469 232.609375 84.503906 230.96875 97.832031 238.894531 C 111.222656 246.753906 117.304688 261.238281 111.359375 271.214844 Z M 60.660156 190.515625 C 59.425781 205.960938 49.109375 217.78125 37.5625 216.890625 C 26.011719 216.003906 17.675781 202.679688 18.90625 187.234375 C 20.136719 171.722656 30.453125 159.96875 42 160.859375 C 53.484375 161.746094 61.886719 175.003906 60.660156 190.515625 Z M 339.9375 165.230469 C 336.660156 152.519531 329.753906 141.042969 320.527344 131.679688 C 307.546875 118.355469 292.652344 107.898438 272.902344 99.085938 C 272.832031 99.085938 272.765625 99.019531 272.695312 98.949219 L 272.695312 99.085938 L 260.535156 174.25 C 260.328125 175.414062 259.714844 176.371094 258.757812 176.984375 L 258.550781 178.285156 C 258.414062 179.105469 258.207031 179.921875 258.074219 180.8125 C 258.007812 181.085938 257.9375 181.359375 257.867188 181.703125 C 257.800781 182.109375 257.730469 182.519531 257.59375 183 C 257.390625 184.09375 257.117188 185.253906 256.910156 186.414062 C 256.773438 187.03125 256.640625 187.644531 256.570312 188.261719 C 256.433594 188.878906 256.296875 189.492188 256.160156 190.175781 L 256.023438 190.71875 C 255.75 192.019531 255.476562 193.316406 255.203125 194.617188 C 254.996094 195.777344 254.726562 197.007812 254.453125 198.167969 L 253.699219 201.859375 C 253.359375 203.632812 252.945312 205.414062 252.539062 207.257812 C 251.648438 211.492188 250.761719 215.800781 249.804688 219.964844 C 253.972656 223.863281 254.589844 228.507812 254.589844 234.726562 C 254.589844 235.820312 254.519531 236.914062 254.3125 237.941406 C 253.085938 246.070312 247.34375 252.699219 239.691406 255.160156 C 239.554688 255.226562 239.488281 255.226562 239.347656 255.296875 C 238.460938 255.570312 237.574219 255.773438 236.683594 255.910156 C 235.660156 256.113281 234.566406 256.183594 233.542969 256.183594 C 233.402344 256.183594 233.265625 256.183594 233.132812 256.183594 C 227.871094 256.183594 223.019531 254.269531 219.261719 251.128906 C 218.507812 250.511719 217.757812 249.761719 217.140625 249.007812 C 216.320312 248.121094 215.636719 247.164062 214.953125 246.136719 C 213.382812 243.679688 212.355469 240.878906 211.878906 237.941406 C 211.671875 236.914062 211.605469 235.820312 211.605469 234.726562 C 211.605469 227.007812 214.40625 219.761719 220.558594 215.9375 C 224.386719 200.082031 228.140625 184.914062 231.832031 170.902344 L 231.832031 169.8125 C 231.492188 168.988281 231.492188 168.101562 231.699219 167.214844 L 231.832031 166.871094 L 232.105469 165.984375 L 254.179688 91.773438 C 229.917969 83.230469 203.679688 78.789062 174.363281 78.789062 C 78.152344 78.789062 -0.0234375 131.269531 -0.0234375 195.984375 C -0.0234375 197.074219 -0.0234375 198.101562 0.046875 199.195312 C 2.574219 262.472656 79.722656 313.242188 174.570312 313.242188 C 183.589844 313.242188 192.335938 312.902344 200.878906 312.21875 C 201.832031 312.148438 202.792969 312.082031 203.746094 311.945312 C 204.703125 311.875 205.726562 311.738281 206.6875 311.671875 C 211.46875 311.191406 216.183594 310.507812 220.832031 309.757812 C 221.859375 309.621094 222.882812 309.417969 223.90625 309.210938 C 224.726562 309.074219 225.476562 308.9375 226.300781 308.734375 C 226.503906 308.664062 226.707031 308.664062 226.914062 308.59375 C 240.992188 305.929688 254.3125 301.964844 266.820312 296.570312 C 279.53125 291.105469 291.488281 284.132812 302.761719 275.457031 C 307.339844 271.898438 310.6875 267.050781 311.851562 261.375 L 311.851562 261.238281 C 312.054688 260.351562 312.195312 259.53125 312.332031 258.644531 C 312.738281 256.046875 312.878906 253.382812 311.851562 250.375 C 309.050781 241.972656 307.070312 238.761719 299.074219 235.683594 C 291.007812 232.609375 282.265625 231.242188 278.234375 227.960938 C 277.273438 227.140625 271.398438 222.359375 269.828125 215.867188 C 269.347656 214.023438 269.28125 212.109375 269.691406 210.058594 C 271.195312 202.816406 278.574219 198.648438 282.742188 197.347656 C 285.613281 196.460938 290.054688 195.984375 290.941406 195.84375 C 293.878906 195.503906 296.136719 195.503906 297.636719 195.503906 C 305.703125 195.4375 308.367188 196.1875 314.449219 196.253906 C 322.375 196.390625 326.679688 196.460938 331.257812 194 C 331.257812 194 335.976562 191.472656 339.457031 186.144531 C 340.554688 184.5 341.238281 182.386719 341.507812 179.921875 C 341.988281 176.097656 341.4375 171.039062 339.9375 165.230469 " fill-opacity="1" fill-rule="nonzero"/></g></svg>