<svg xmlns="http://www.w3.org/2000/svg" xmlns:xlink="http://www.w3.org/1999/xlink" width="69" zoomAndPan="magnify" viewBox="0 0 375 374.999991" height="69" preserveAspectRatio="xMidYMid meet" version="1.0"><defs><clipPath id="e00a947557"><path d="M 124 331 L 246 331 L 246 337.164062 L 124 337.164062 Z M 124 331 " clip-rule="nonzero"/></clipPath><clipPath id="886078f49a"><path d="M 82 31.183594 L 288 31.183594 L 288 54 L 82 54 Z M 82 31.183594 " clip-rule="nonzero"/></clipPath></defs><path fill="#ffffff" d="M 52.601562 61.894531 C 42.695312 68.972656 40.253906 82.945312 42.675781 94.222656 C 45.539062 107.546875 55.652344 119.191406 67.210938 126.007812 C 67.839844 126.378906 68.347656 125.457031 67.773438 125.046875 C 57.121094 117.46875 47.460938 108.253906 44.113281 95.125 C 41.210938 83.722656 43.605469 70.089844 52.8125 62.167969 C 52.960938 62.039062 52.761719 61.773438 52.601562 61.894531 " fill-opacity="1" fill-rule="nonzero"/><path fill="#ffffff" d="M 110.671875 168.261719 C 121.996094 178.660156 132.871094 189.230469 142.390625 201.359375 C 147.277344 207.585938 153.0625 214.335938 155.417969 222.019531 C 157.722656 229.527344 156.332031 237.203125 152.722656 244.03125 C 152.554688 244.339844 153 244.597656 153.195312 244.304688 C 156.988281 238.585938 157.886719 231.183594 156.757812 224.519531 C 155.414062 216.570312 150.050781 210.046875 145.308594 203.777344 C 135.40625 190.671875 123.976562 178.003906 110.75 168.15625 C 110.691406 168.113281 110.617188 168.210938 110.671875 168.261719 " fill-opacity="1" fill-rule="nonzero"/><path fill="#ffffff" d="M 149.25 239.589844 C 153.519531 239.128906 157.445312 235.234375 158 230.972656 C 158.035156 230.703125 157.578125 230.578125 157.472656 230.832031 C 155.773438 234.832031 153.539062 237.898438 149.191406 239.179688 C 148.976562 239.242188 149.007812 239.613281 149.25 239.589844 " fill-opacity="1" fill-rule="nonzero"/><path fill="#ffffff" d="M 220.351562 238.925781 C 216.445312 237.78125 213.753906 236.082031 210.976562 233.097656 C 210.738281 232.84375 210.304688 233.171875 210.496094 233.46875 C 212.492188 236.664062 216.457031 239.269531 220.285156 239.390625 C 220.558594 239.398438 220.601562 239 220.351562 238.925781 " fill-opacity="1" fill-rule="nonzero"/><path fill="#ffffff" d="M 284.785156 146.824219 C 272.652344 155.125 261.054688 164.617188 250.132812 174.449219 C 239.269531 184.238281 228.925781 194.941406 220.234375 206.730469 C 219.957031 207.109375 220.589844 207.605469 220.890625 207.238281 C 230.207031 195.855469 239.875 185 250.820312 175.132812 C 261.78125 165.25 273.734375 156.59375 284.894531 146.960938 C 284.96875 146.898438 284.871094 146.765625 284.785156 146.824219 " fill-opacity="1" fill-rule="nonzero"/><path fill="#ffffff" d="M 313 60.636719 C 320.9375 64.132812 324.847656 71.394531 325.453125 79.84375 C 326.195312 90.28125 321.773438 99.0625 317.171875 108.058594 C 316.898438 108.589844 317.636719 109.015625 317.964844 108.523438 C 323.847656 99.730469 327.648438 88.308594 326.199219 77.695312 C 325.140625 69.910156 321 62.660156 313.179688 60.214844 C 312.933594 60.132812 312.757812 60.53125 313 60.636719 " fill-opacity="1" fill-rule="nonzero"/><path fill="#ffffff" d="M 219.316406 323.539062 C 225.214844 323.21875 231.175781 323.101562 237.050781 322.457031 C 237.363281 322.421875 237.378906 321.953125 237.050781 321.953125 C 231.140625 322.003906 225.207031 322.59375 219.316406 322.972656 C 218.953125 322.992188 218.949219 323.558594 219.316406 323.539062 " fill-opacity="1" fill-rule="nonzero"/><path fill="#ffffff" d="M 150.664062 323.304688 C 144.769531 323.046875 138.816406 322.558594 132.917969 322.535156 C 132.511719 322.53125 132.539062 323.101562 132.917969 323.148438 C 138.734375 323.867188 144.8125 323.820312 150.664062 323.675781 C 150.902344 323.667969 150.902344 323.3125 150.664062 323.304688 " fill-opacity="1" fill-rule="nonzero"/><path fill="#ffffff" d="M 198.925781 331.242188 C 213.832031 331.269531 228.757812 331.203125 243.65625 331.128906 C 244.015625 331.125 244.019531 330.558594 243.65625 330.5625 C 228.753906 330.636719 213.832031 330.71875 198.925781 330.898438 C 198.703125 330.902344 198.703125 331.242188 198.925781 331.242188 " fill-opacity="1" fill-rule="nonzero"/><path fill="#ffffff" d="M 167.25 331.679688 C 160.429688 331.480469 153.601562 331.445312 146.769531 331.488281 C 142.164062 331.515625 137.5625 331.550781 132.960938 331.660156 C 131.03125 331.703125 128.078125 331.257812 126.265625 332.105469 C 125.792969 332.328125 126.152344 332.960938 126.59375 332.886719 C 128.941406 332.496094 131.519531 332.660156 133.894531 332.597656 C 138.484375 332.476562 143.078125 332.386719 147.671875 332.304688 C 154.203125 332.1875 160.730469 332.03125 167.25 331.773438 C 167.308594 331.769531 167.3125 331.683594 167.25 331.679688 " fill-opacity="1" fill-rule="nonzero"/><path fill="#ffffff" d="M 252.699219 44.425781 C 261.332031 46.226562 269.546875 48.53125 277.496094 52.4375 C 278.015625 52.691406 278.472656 51.910156 277.953125 51.660156 C 270.070312 47.84375 261.492188 44.964844 252.730469 44.1875 C 252.59375 44.175781 252.566406 44.398438 252.699219 44.425781 " fill-opacity="1" fill-rule="nonzero"/><path fill="#ffffff" d="M 99.625 46.1875 C 98.324219 46.285156 96.980469 46.761719 95.734375 47.117188 C 94.007812 47.605469 92 48.042969 90.523438 49.121094 C 90.128906 49.40625 90.480469 50.058594 90.917969 49.792969 C 93.636719 48.15625 96.886719 47.871094 99.734375 46.605469 C 99.9375 46.515625 99.835938 46.171875 99.625 46.1875 " fill-opacity="1" fill-rule="nonzero"/><path fill="#ffffff" d="M 124.800781 41.304688 C 122.933594 41.417969 120.789062 41.550781 119 42.105469 C 118.753906 42.179688 118.800781 42.546875 119.058594 42.550781 C 120.933594 42.589844 123.03125 42.117188 124.855469 41.707031 C 125.078125 41.65625 125.03125 41.292969 124.800781 41.304688 " fill-opacity="1" fill-rule="nonzero"/><path fill="#ffffff" d="M 261.511719 81.992188 C 258.402344 84.347656 254.949219 85.992188 251.730469 88.140625 C 251.496094 88.296875 251.636719 88.726562 251.9375 88.621094 C 255.53125 87.375 258.894531 84.777344 261.871094 82.457031 C 262.136719 82.253906 261.78125 81.789062 261.511719 81.992188 " fill-opacity="1" fill-rule="nonzero"/><path fill="#ffffff" d="M 261.742188 84.707031 C 257.238281 88.179688 252.59375 91.078125 247.699219 93.941406 C 247.402344 94.113281 247.660156 94.53125 247.960938 94.390625 C 252.984375 92.050781 257.78125 88.597656 261.835938 84.828125 C 261.902344 84.769531 261.8125 84.652344 261.742188 84.707031 " fill-opacity="1" fill-rule="nonzero"/><path fill="#ffffff" d="M 264.832031 87.375 C 256.707031 92.800781 248.527344 98.195312 240.609375 103.921875 C 240.269531 104.164062 240.582031 104.726562 240.941406 104.492188 C 249.089844 99.078125 257.023438 93.3125 264.96875 87.605469 C 265.109375 87.507812 264.980469 87.277344 264.832031 87.375 " fill-opacity="1" fill-rule="nonzero"/><path fill="#ffffff" d="M 258.355469 95.613281 C 251.476562 102.433594 243.742188 107.703125 235.390625 112.535156 C 235.03125 112.75 235.34375 113.265625 235.714844 113.09375 C 244.34375 109.003906 252.109375 102.804688 258.722656 95.980469 C 258.957031 95.738281 258.597656 95.375 258.355469 95.613281 " fill-opacity="1" fill-rule="nonzero"/><path fill="#ffffff" d="M 259.175781 101.988281 C 254.933594 105.296875 250.585938 108.457031 246.132812 111.476562 C 241.96875 114.304688 237.480469 116.722656 233.386719 119.640625 C 233.070312 119.867188 233.339844 120.332031 233.691406 120.160156 C 238.496094 117.855469 243.03125 114.554688 247.410156 111.527344 C 251.589844 108.640625 255.644531 105.589844 259.617188 102.429688 C 259.929688 102.179688 259.488281 101.746094 259.175781 101.988281 " fill-opacity="1" fill-rule="nonzero"/><path fill="#ffffff" d="M 254.335938 113.21875 C 245.855469 118.703125 236.984375 123.335938 228.222656 128.328125 C 227.847656 128.539062 228.175781 129.066406 228.554688 128.894531 C 237.65625 124.757812 246.316406 119.246094 254.660156 113.78125 C 255.011719 113.550781 254.6875 112.988281 254.335938 113.21875 " fill-opacity="1" fill-rule="nonzero"/><path fill="#ffffff" d="M 253.675781 119.375 C 244.203125 125.195312 234.410156 130.878906 225.464844 137.5 C 225.242188 137.667969 225.4375 138.035156 225.6875 137.886719 C 235.316406 132.257812 244.492188 125.75 253.90625 119.765625 C 254.152344 119.609375 253.925781 119.21875 253.675781 119.375 " fill-opacity="1" fill-rule="nonzero"/><path fill="#ffffff" d="M 247.207031 130.425781 C 238.722656 138.054688 228.179688 142.726562 218.550781 148.664062 C 218.207031 148.875 218.511719 149.390625 218.863281 149.203125 C 228.75 143.953125 239.296875 138.410156 247.617188 130.832031 C 247.890625 130.582031 247.484375 130.175781 247.207031 130.425781 " fill-opacity="1" fill-rule="nonzero"/><path fill="#ffffff" d="M 244.535156 139.664062 C 235.636719 147.410156 225.503906 153.535156 214.5 157.789062 C 214.1875 157.910156 214.320312 158.421875 214.640625 158.300781 C 225.785156 154.0625 236.003906 147.953125 244.988281 140.117188 C 245.300781 139.847656 244.847656 139.398438 244.535156 139.664062 " fill-opacity="1" fill-rule="nonzero"/><path fill="#ffffff" d="M 235.453125 153.46875 C 231.582031 155.703125 227.671875 157.855469 223.707031 159.902344 C 219.761719 161.9375 215.539062 163.617188 211.722656 165.867188 C 211.488281 166.003906 211.640625 166.410156 211.910156 166.316406 C 220.203125 163.449219 228.207031 158.398438 235.75 153.984375 C 236.082031 153.789062 235.785156 153.277344 235.453125 153.46875 " fill-opacity="1" fill-rule="nonzero"/><path fill="#ffffff" d="M 236.277344 158.265625 C 231.480469 161.617188 226.589844 164.824219 221.617188 167.90625 C 216.664062 170.972656 211.292969 173.527344 206.476562 176.777344 C 206.136719 177.007812 206.429688 177.46875 206.789062 177.316406 C 212.09375 175.066406 217.128906 171.621094 222.007812 168.574219 C 226.972656 165.472656 231.8125 162.179688 236.570312 158.765625 C 236.867188 158.550781 236.585938 158.054688 236.277344 158.265625 " fill-opacity="1" fill-rule="nonzero"/><path fill="#ffffff" d="M 224.367188 173.3125 C 220.519531 175.730469 216.625 178.070312 212.714844 180.378906 C 210.414062 181.738281 208.042969 183.46875 205.59375 184.542969 C 205.351562 184.652344 205.488281 185.015625 205.722656 185.019531 C 206.347656 185.027344 207.082031 184.492188 207.597656 184.214844 C 209.246094 183.328125 210.839844 182.316406 212.449219 181.355469 C 216.554688 178.902344 220.640625 176.410156 224.675781 173.839844 C 225.007812 173.628906 224.703125 173.101562 224.367188 173.3125 " fill-opacity="1" fill-rule="nonzero"/><path fill="#ffffff" d="M 216.386719 181.941406 C 212.101562 185.09375 207.566406 187.6875 202.929688 190.28125 C 202.6875 190.417969 202.902344 190.761719 203.148438 190.652344 C 207.957031 188.507812 212.460938 185.585938 216.710938 182.492188 C 217.042969 182.253906 216.71875 181.695312 216.386719 181.941406 " fill-opacity="1" fill-rule="nonzero"/><path fill="#ffffff" d="M 209.261719 191.460938 C 205.683594 193.28125 201.988281 194.792969 198.273438 196.300781 C 198.003906 196.410156 198.101562 196.839844 198.394531 196.75 C 202.269531 195.539062 205.960938 193.839844 209.5625 191.972656 C 209.898438 191.800781 209.601562 191.289062 209.261719 191.460938 " fill-opacity="1" fill-rule="nonzero"/><path fill="#ffffff" d="M 207.339844 196.324219 C 203.492188 198.367188 199.480469 200.257812 195.800781 202.578125 C 195.503906 202.765625 195.757812 203.179688 196.0625 203.035156 C 200.023438 201.21875 203.796875 198.894531 207.609375 196.792969 C 207.914062 196.621094 207.644531 196.164062 207.339844 196.324219 " fill-opacity="1" fill-rule="nonzero"/><path fill="#ffffff" d="M 185.890625 227.082031 C 188.875 226.472656 191.894531 225.84375 194.824219 225.023438 C 195.078125 224.953125 194.964844 224.597656 194.71875 224.636719 C 191.714844 225.101562 188.722656 225.957031 185.859375 226.964844 C 185.785156 226.992188 185.816406 227.09375 185.890625 227.082031 " fill-opacity="1" fill-rule="nonzero"/><path fill="#ffffff" d="M 185.273438 229.699219 C 188.078125 229.300781 191.082031 228.839844 193.777344 227.953125 C 194 227.878906 193.976562 227.480469 193.714844 227.511719 C 190.886719 227.867188 187.960938 228.734375 185.242188 229.582031 C 185.164062 229.605469 185.199219 229.710938 185.273438 229.699219 " fill-opacity="1" fill-rule="nonzero"/><path fill="#ffffff" d="M 185.972656 231.492188 C 187.878906 231.140625 189.90625 230.992188 191.753906 230.410156 C 191.976562 230.34375 191.949219 229.957031 191.695312 229.980469 C 189.75 230.175781 187.816406 230.828125 185.910156 231.257812 C 185.757812 231.292969 185.824219 231.519531 185.972656 231.492188 " fill-opacity="1" fill-rule="nonzero"/><path fill="#ffffff" d="M 185.3125 234.964844 C 187.644531 234.59375 190.214844 234.292969 192.414062 233.417969 C 192.683594 233.3125 192.582031 232.949219 192.296875 232.988281 C 189.917969 233.339844 187.574219 234.125 185.199219 234.5625 C 184.933594 234.613281 185.050781 235.007812 185.3125 234.964844 " fill-opacity="1" fill-rule="nonzero"/><path fill="#ffffff" d="M 186.546875 237.65625 C 188.164062 237.90625 189.8125 237.929688 191.414062 237.558594 C 191.753906 237.476562 191.609375 236.96875 191.269531 237.035156 C 189.707031 237.359375 188.175781 237.539062 186.578125 237.421875 C 186.445312 237.410156 186.414062 237.636719 186.546875 237.65625 " fill-opacity="1" fill-rule="nonzero"/><path fill="#ffffff" d="M 186.605469 241.980469 C 187.738281 241.902344 188.871094 241.800781 189.996094 241.660156 C 190.285156 241.625 190.289062 241.171875 189.996094 241.207031 C 188.851562 241.347656 187.707031 241.527344 186.570312 241.726562 C 186.425781 241.75 186.457031 241.992188 186.605469 241.980469 " fill-opacity="1" fill-rule="nonzero"/><path fill="#ffffff" d="M 187.621094 244.109375 C 188.628906 244.09375 189.679688 244.15625 190.679688 244.019531 C 190.898438 243.992188 190.90625 243.699219 190.679688 243.679688 C 189.675781 243.589844 188.628906 243.703125 187.621094 243.738281 C 187.382812 243.742188 187.382812 244.109375 187.621094 244.109375 " fill-opacity="1" fill-rule="nonzero"/><path fill="#ffffff" d="M 186.597656 246.789062 C 188.238281 246.855469 189.871094 246.675781 191.417969 246.089844 C 191.6875 245.988281 191.578125 245.5625 191.296875 245.652344 C 189.753906 246.140625 188.222656 246.476562 186.597656 246.492188 C 186.40625 246.496094 186.40625 246.785156 186.597656 246.789062 " fill-opacity="1" fill-rule="nonzero"/><path fill="#ffffff" d="M 186.261719 249.0625 C 187.992188 249.238281 189.714844 249.203125 191.414062 248.796875 C 191.636719 248.742188 191.539062 248.417969 191.320312 248.457031 C 189.632812 248.746094 187.96875 248.914062 186.261719 248.8125 C 186.097656 248.800781 186.105469 249.046875 186.261719 249.0625 " fill-opacity="1" fill-rule="nonzero"/><path fill="#ffffff" d="M 192.753906 255.390625 C 192.996094 258.296875 192.617188 261 192.152344 263.851562 C 192.089844 264.234375 192.632812 264.402344 192.746094 264.015625 C 193.546875 261.238281 193.441406 258.1875 192.988281 255.359375 C 192.96875 255.226562 192.742188 255.257812 192.753906 255.390625 " fill-opacity="1" fill-rule="nonzero"/><path fill="#ffffff" d="M 190.230469 257.832031 C 190.558594 260.054688 190.1875 262.070312 190.09375 264.269531 C 190.078125 264.628906 190.574219 264.652344 190.683594 264.347656 C 191.449219 262.300781 191.140625 259.800781 190.679688 257.710938 C 190.609375 257.414062 190.1875 257.546875 190.230469 257.832031 " fill-opacity="1" fill-rule="nonzero"/><path fill="#ffffff" d="M 196.535156 275.714844 C 200.175781 279.160156 205.320312 282.136719 210.277344 283.109375 C 210.679688 283.1875 210.808594 282.660156 210.445312 282.507812 C 205.519531 280.472656 201.164062 278.449219 196.734375 275.460938 C 196.578125 275.355469 196.402344 275.585938 196.535156 275.714844 " fill-opacity="1" fill-rule="nonzero"/><path fill="#ffffff" d="M 196.386719 279.195312 C 198.507812 279.734375 199.964844 280.894531 201.570312 282.308594 C 201.710938 282.429688 201.96875 282.269531 201.847656 282.089844 C 200.652344 280.363281 198.480469 279.300781 196.488281 278.828125 C 196.25 278.769531 196.148438 279.132812 196.386719 279.195312 " fill-opacity="1" fill-rule="nonzero"/><path fill="#ffffff" d="M 191.917969 278.757812 C 193.9375 280.199219 195.929688 281.890625 198.113281 283.078125 C 198.332031 283.195312 198.589844 282.898438 198.386719 282.722656 C 196.5 281.078125 194.207031 279.792969 192.132812 278.386719 C 191.902344 278.230469 191.695312 278.597656 191.917969 278.757812 " fill-opacity="1" fill-rule="nonzero"/><path fill="#ffffff" d="M 188.199219 280.085938 C 189.527344 281 190.839844 282.066406 192.28125 282.800781 C 192.476562 282.902344 192.714844 282.640625 192.53125 282.480469 C 191.285156 281.414062 189.792969 280.597656 188.421875 279.703125 C 188.179688 279.542969 187.964844 279.925781 188.199219 280.085938 " fill-opacity="1" fill-rule="nonzero"/><path fill="#ffffff" d="M 184.0625 279.835938 C 184.964844 280.296875 185.867188 280.761719 186.785156 281.191406 C 187.117188 281.347656 187.410156 280.871094 187.078125 280.695312 C 186.183594 280.214844 185.273438 279.765625 184.367188 279.3125 C 184.019531 279.140625 183.714844 279.65625 184.0625 279.835938 " fill-opacity="1" fill-rule="nonzero"/><path fill="#ffffff" d="M 153.886719 283.769531 C 150.972656 284.3125 147.507812 287.160156 147.789062 290.445312 C 147.8125 290.726562 148.199219 290.796875 148.289062 290.511719 C 148.769531 289.015625 149.058594 287.660156 150.132812 286.433594 C 151.15625 285.265625 152.460938 284.445312 153.964844 284.058594 C 154.152344 284.011719 154.074219 283.738281 153.886719 283.769531 " fill-opacity="1" fill-rule="nonzero"/><path fill="#ffffff" d="M 156.683594 285.714844 C 154.835938 285.917969 152.925781 287.902344 153.574219 289.859375 C 153.65625 290.109375 154.019531 290.0625 154.03125 289.796875 C 154.117188 288.042969 154.863281 286.4375 156.722656 285.996094 C 156.878906 285.964844 156.847656 285.699219 156.683594 285.714844 " fill-opacity="1" fill-rule="nonzero"/><path fill="#ffffff" d="M 158.75 287.988281 C 158.640625 288.324219 158.492188 288.667969 158.425781 289.011719 C 158.378906 289.226562 158.695312 289.398438 158.804688 289.171875 C 158.96875 288.839844 159.0625 288.460938 159.179688 288.105469 C 159.273438 287.832031 158.84375 287.714844 158.75 287.988281 " fill-opacity="1" fill-rule="nonzero"/><path fill="#ffffff" d="M 161.890625 289.773438 C 161.90625 289.886719 161.917969 290 161.933594 290.113281 C 161.960938 290.332031 162.25 290.335938 162.277344 290.113281 C 162.289062 290 162.304688 289.886719 162.320312 289.773438 C 162.351562 289.5 161.855469 289.496094 161.890625 289.773438 " fill-opacity="1" fill-rule="nonzero"/><path fill="#ffffff" d="M 222.933594 284.785156 C 226.316406 286.476562 227.566406 289.386719 228.203125 292.910156 C 228.261719 293.242188 228.722656 293.125 228.75 292.835938 C 229.101562 289.257812 226.191406 285.847656 223.082031 284.527344 C 222.910156 284.453125 222.757812 284.695312 222.933594 284.785156 " fill-opacity="1" fill-rule="nonzero"/><path fill="#ffffff" d="M 221.914062 287.644531 C 223.53125 288.085938 224.523438 289.503906 224.640625 291.132812 C 224.667969 291.472656 225.164062 291.480469 225.171875 291.132812 C 225.207031 289.296875 223.769531 287.691406 222.011719 287.304688 C 221.789062 287.257812 221.695312 287.582031 221.914062 287.644531 " fill-opacity="1" fill-rule="nonzero"/><path fill="#ffffff" d="M 173.425781 251.964844 C 177.152344 253.617188 181.246094 254.070312 185.300781 254.058594 C 189.195312 254.046875 193.765625 253.847656 197.367188 252.226562 C 198.015625 251.933594 197.699219 250.816406 197 250.875 C 193.070312 251.214844 189.292969 252.234375 185.300781 252.269531 C 181.363281 252.304688 177.488281 251.691406 173.574219 251.410156 C 173.289062 251.390625 173.15625 251.847656 173.425781 251.964844 " fill-opacity="1" fill-rule="nonzero"/><path fill="#ffffff" d="M 164.398438 210.4375 C 171.089844 212.726562 178.886719 213.054688 185.898438 213.078125 C 193.160156 213.101562 200.382812 212.316406 207.402344 210.433594 C 208.464844 210.152344 208.015625 208.5 206.949219 208.785156 C 199.910156 210.6875 192.648438 211.46875 185.367188 211.460938 C 178.355469 211.453125 171.425781 210.207031 164.441406 210.109375 C 164.246094 210.109375 164.222656 210.378906 164.398438 210.4375 " fill-opacity="1" fill-rule="nonzero"/><path fill="#ffffff" d="M 164.992188 219.074219 C 171.527344 221.277344 179.066406 221.523438 185.898438 221.382812 C 192.976562 221.238281 199.972656 220.246094 206.808594 218.40625 C 207.871094 218.121094 207.417969 216.472656 206.355469 216.757812 C 199.492188 218.617188 192.457031 219.621094 185.347656 219.777344 C 178.53125 219.929688 171.824219 218.859375 165.035156 218.746094 C 164.839844 218.742188 164.816406 219.015625 164.992188 219.074219 " fill-opacity="1" fill-rule="nonzero"/><path fill="#ffffff" d="M 93.554688 51.070312 C 106.417969 49.179688 119.121094 46.675781 132.078125 45.371094 C 144.117188 44.160156 156.210938 43.5625 168.308594 43.421875 C 192.230469 43.140625 216.578125 43.554688 240.257812 47.1875 C 252.347656 49.039062 264.414062 51.605469 275.949219 55.71875 C 276.898438 56.058594 277.308594 54.546875 276.367188 54.210938 C 255.601562 46.832031 233.164062 43.890625 211.238281 42.847656 C 185.933594 41.644531 160.570312 41.390625 135.324219 43.796875 C 121.355469 45.128906 106.96875 46.816406 93.441406 50.65625 C 93.167969 50.730469 93.289062 51.105469 93.554688 51.070312 " fill-opacity="1" fill-rule="nonzero"/><path fill="#ffffff" d="M 122.605469 46.464844 C 122.671875 56.019531 123.90625 65.699219 125.226562 75.148438 C 126.550781 84.628906 128.253906 94.078125 130.507812 103.386719 C 134.851562 121.320312 140.964844 138.84375 149.054688 155.441406 C 153.441406 164.4375 158.179688 174.050781 164.457031 181.894531 C 165.050781 182.632812 166.144531 181.691406 165.726562 180.914062 C 161.535156 173.117188 156.546875 165.792969 152.519531 157.871094 C 148.324219 149.621094 144.625 141.113281 141.417969 132.425781 C 135.121094 115.378906 130.675781 97.640625 127.695312 79.726562 C 125.855469 68.675781 125.007812 57.5625 123.628906 46.464844 C 123.546875 45.835938 122.601562 45.789062 122.605469 46.464844 " fill-opacity="1" fill-rule="nonzero"/><path fill="#ffffff" d="M 102.324219 49.816406 C 104.546875 73.632812 109.195312 97.882812 116.605469 120.648438 C 120.011719 131.109375 124.417969 141.394531 129.46875 151.175781 C 133.027344 158.0625 137.304688 164.851562 143.070312 170.109375 C 149.164062 175.671875 156.867188 178.71875 164.105469 182.445312 C 165.1875 183.003906 166.148438 181.367188 165.0625 180.808594 C 158.429688 177.417969 151.328125 174.660156 145.550781 169.84375 C 139.910156 165.140625 135.695312 158.898438 132.183594 152.507812 C 129.476562 147.570312 127.148438 142.390625 124.820312 137.261719 C 118.777344 123.960938 114.699219 109.792969 111.429688 95.589844 C 107.933594 80.40625 105.78125 65.054688 103.398438 49.671875 C 103.304688 49.066406 102.265625 49.203125 102.324219 49.816406 " fill-opacity="1" fill-rule="nonzero"/><path fill="#ffffff" d="M 120.792969 38.011719 C 116.738281 37.339844 118.714844 44.582031 120.589844 45.898438 C 121.015625 46.195312 121.667969 45.800781 121.636719 45.296875 C 121.550781 43.824219 118.429688 39.707031 120.792969 39.085938 C 121.292969 38.957031 121.351562 38.101562 120.792969 38.011719 " fill-opacity="1" fill-rule="nonzero"/><path fill="#ffffff" d="M 100.632812 42.089844 C 98.546875 41.015625 98.273438 44.308594 98.480469 45.511719 C 98.6875 46.746094 99.089844 49.023438 100.273438 49.703125 C 100.65625 49.921875 101.324219 49.75 101.394531 49.246094 C 101.539062 48.234375 100.925781 47.332031 100.597656 46.390625 C 100.367188 45.726562 100.128906 45.007812 100.105469 44.296875 C 100.078125 43.5625 100.328125 43.539062 100.757812 43.050781 C 101.003906 42.769531 101.003906 42.277344 100.632812 42.089844 " fill-opacity="1" fill-rule="nonzero"/><path fill="#ffffff" d="M 168.511719 308.6875 C 180.128906 309.375 191.84375 309.070312 203.480469 309.585938 C 204.722656 309.640625 204.714844 307.722656 203.480469 307.652344 C 191.992188 307.015625 179.957031 306.527344 168.511719 307.960938 C 168.058594 308.019531 168.035156 308.660156 168.511719 308.6875 " fill-opacity="1" fill-rule="nonzero"/><path fill="#ffffff" d="M 175.109375 313.695312 C 182.109375 313.71875 189.429688 314.558594 196.390625 313.734375 C 197.148438 313.644531 197.164062 312.621094 196.390625 312.546875 C 189.414062 311.878906 182.105469 312.882812 175.109375 313.0625 C 174.699219 313.074219 174.699219 313.691406 175.109375 313.695312 " fill-opacity="1" fill-rule="nonzero"/><path fill="#ffffff" d="M 173.90625 250.902344 C 178.011719 245.101562 178.382812 237.710938 176.84375 230.960938 C 175.273438 224.0625 170.769531 219.8125 165.492188 215.433594 C 159.773438 210.691406 155.269531 205.164062 150.640625 199.363281 C 145.683594 193.152344 140.90625 186.773438 136.382812 180.234375 C 120.308594 157.007812 108.339844 131.484375 102.066406 103.890625 C 98.296875 87.316406 96.441406 70.398438 95.542969 53.445312 C 95.457031 51.84375 94.175781 50.203125 92.414062 50.320312 C 90.289062 50.457031 88.875 49.4375 88.285156 47.039062 C 87.511719 43.910156 82.609375 44.566406 82.664062 47.796875 C 82.753906 53.117188 87.082031 56.945312 92.414062 56.570312 C 91.371094 55.527344 90.332031 54.488281 89.289062 53.445312 C 90.949219 82.019531 95.453125 110.5625 106.308594 137.191406 C 117.273438 164.085938 133.980469 187.917969 152.957031 209.753906 C 155.46875 212.644531 157.996094 215.207031 160.992188 217.601562 C 163.984375 219.996094 167.148438 222.3125 169.648438 225.25 C 174.78125 231.28125 175.761719 242.933594 172.207031 249.910156 C 171.625 251.050781 173.179688 251.933594 173.90625 250.902344 " fill-opacity="1" fill-rule="nonzero"/><path fill="#ffffff" d="M 197.757812 249.910156 C 194.5625 243.613281 195.121094 233.269531 198.851562 227.242188 C 202.488281 221.367188 209.21875 218.222656 213.890625 213.320312 C 219.308594 207.640625 223.972656 200.9375 228.667969 194.65625 C 233.449219 188.261719 237.996094 181.675781 242.292969 174.941406 C 258.28125 149.886719 269.832031 122.402344 275.644531 93.214844 C 277.355469 84.636719 278.609375 75.957031 279.511719 67.253906 C 279.707031 65.410156 279.363281 62.277344 280.171875 60.609375 C 280.617188 59.679688 282.066406 59.046875 282.875 58.503906 C 285.492188 56.75 287.753906 54.832031 287.804688 51.449219 C 287.851562 48.246094 282.972656 47.53125 282.183594 50.691406 C 281.6875 52.667969 278.265625 53.917969 276.808594 55.152344 C 274.109375 57.441406 273.957031 59.984375 273.671875 63.339844 C 272.972656 71.453125 271.957031 79.53125 270.539062 87.550781 C 267.898438 102.492188 263.875 117.183594 258.347656 131.320312 C 252.828125 145.425781 245.761719 158.917969 237.777344 171.777344 C 233.574219 178.550781 229.078125 185.136719 224.445312 191.632812 C 221.964844 195.109375 219.433594 198.542969 216.855469 201.945312 C 214.457031 205.109375 212.167969 208.507812 209.296875 211.261719 C 204.089844 216.257812 196.9375 220.183594 194.21875 227.226562 C 191.316406 234.742188 191.273438 244.160156 196.058594 250.902344 C 196.785156 251.929688 198.339844 251.054688 197.757812 249.910156 " fill-opacity="1" fill-rule="nonzero"/><path fill="#ffffff" d="M 274.167969 91.113281 C 283.222656 89.089844 286.128906 80.609375 290.585938 73.617188 C 292.871094 70.035156 295.796875 67.164062 300.03125 66.128906 C 305.421875 64.8125 310.964844 66.496094 314.601562 70.691406 C 324.59375 82.226562 319.0625 99.53125 311.816406 110.789062 C 307.824219 116.992188 303.027344 122.71875 297.152344 127.222656 C 290.933594 131.988281 284.761719 136.8125 278.664062 141.734375 C 263.332031 154.113281 248.082031 166.914062 234.53125 181.269531 C 229.703125 186.386719 225.417969 191.929688 221.167969 197.527344 C 212.730469 208.636719 204.417969 223.800781 210.121094 238.078125 C 211.996094 242.777344 216.878906 247.324219 222.332031 245.828125 C 227.320312 244.464844 228.082031 239.257812 226.066406 235.148438 C 225.066406 233.113281 221.566406 234.546875 222.363281 236.710938 C 224.160156 241.554688 218.9375 241.773438 216.445312 238.746094 C 213.082031 234.660156 213.265625 227.433594 214.132812 222.523438 C 216.039062 211.742188 223.90625 203.238281 230.15625 194.746094 C 230.503906 194.273438 230.835938 193.785156 231.1875 193.316406 C 231.59375 192.773438 230.808594 193.792969 231.273438 193.203125 C 231.445312 192.988281 231.609375 192.773438 231.785156 192.5625 C 232.253906 191.984375 232.722656 191.414062 233.203125 190.847656 C 236.402344 187.070312 239.847656 183.503906 243.359375 180.019531 C 259.226562 164.28125 276.660156 150.089844 294.246094 136.339844 C 300.203125 131.6875 306.0625 127.339844 310.863281 121.429688 C 315.164062 116.128906 319.078125 110.300781 321.742188 103.992188 C 326.703125 92.230469 327.390625 76.980469 318.433594 66.859375 C 311.0625 58.523438 297.097656 57.996094 289.671875 66.511719 C 283.820312 73.214844 282.433594 85.367188 273.605469 89.070312 C 272.382812 89.582031 272.800781 91.417969 274.167969 91.113281 " fill-opacity="1" fill-rule="nonzero"/><path fill="#ffffff" d="M 275.945312 78.523438 C 279.386719 67.992188 287.671875 57.355469 298.929688 54.855469 C 307.613281 52.921875 317.953125 55.429688 323.867188 62.242188 C 332.511719 72.199219 332.355469 87.636719 328.503906 99.5 C 325.300781 109.355469 319.792969 119.289062 312.394531 126.621094 C 302.09375 136.824219 290.40625 145.441406 279.121094 154.492188 C 264.433594 166.273438 249.792969 178.371094 236.886719 192.121094 C 230.738281 198.667969 224.722656 205.703125 220.429688 213.640625 C 218.289062 217.597656 216.566406 221.917969 215.894531 226.382812 C 215.09375 231.683594 217.953125 239.675781 224.765625 237.726562 C 227.3125 237 226.222656 233.367188 223.691406 233.820312 C 221.464844 234.21875 220.847656 230.75 220.820312 229.277344 C 220.789062 227.289062 221.359375 225.292969 221.921875 223.40625 C 222.363281 221.925781 222.890625 220.484375 223.539062 219.082031 C 225.054688 215.804688 226.984375 212.71875 229.0625 209.769531 C 234.199219 202.492188 240.410156 195.972656 246.757812 189.75 C 260.285156 176.488281 275.085938 164.585938 289.929688 152.847656 C 295.234375 148.652344 300.605469 144.527344 305.765625 140.160156 C 311.90625 134.964844 318.140625 129.445312 322.777344 122.832031 C 329.613281 113.078125 334.941406 101.503906 336.246094 89.589844 C 337.523438 77.917969 334.578125 64 325.328125 56.027344 C 317.652344 49.40625 305.285156 47.003906 295.621094 50.214844 C 283.570312 54.222656 275.617188 65.734375 273.902344 77.960938 C 273.714844 79.28125 275.507812 79.859375 275.945312 78.523438 " fill-opacity="1" fill-rule="nonzero"/><path fill="#ffffff" d="M 95.480469 88.15625 C 94.378906 90.222656 90.449219 83.539062 90.089844 82.90625 C 88.882812 80.800781 87.707031 78.695312 86.585938 76.542969 C 84.535156 72.597656 82.410156 68.515625 79.132812 65.4375 C 71.695312 58.453125 59.410156 58.75 52.113281 65.777344 C 42.726562 74.808594 42.609375 89.988281 46.773438 101.476562 C 51.5 114.523438 60.839844 125.160156 71.644531 133.523438 C 89.730469 147.535156 107.628906 162 124.054688 177.960938 C 127.894531 181.691406 131.65625 185.511719 135.183594 189.539062 C 136.164062 190.65625 137.113281 191.792969 138.042969 192.957031 C 138.6875 193.761719 137.898438 192.722656 138.539062 193.601562 C 138.734375 193.871094 138.929688 194.136719 139.121094 194.40625 C 144.875 202.316406 151.339844 209.601562 154.464844 219.078125 C 156.238281 224.445312 156.839844 232.261719 153.96875 237.378906 C 152.945312 239.21875 150.902344 241.371094 148.554688 240.851562 C 146.382812 240.367188 146.496094 238.464844 147.148438 236.710938 C 147.9375 234.570312 144.457031 233.09375 143.445312 235.148438 C 141.683594 238.738281 141.839844 243.136719 145.714844 245.238281 C 149.765625 247.433594 154.578125 245.152344 157.203125 241.851562 C 160.804688 237.332031 161.296875 230.867188 160.96875 225.308594 C 160.582031 218.746094 158.019531 212.628906 154.753906 206.988281 C 150.113281 198.96875 143.792969 190.964844 137.5 184 C 126.003906 171.265625 112.878906 159.941406 99.710938 148.996094 C 94.082031 144.320312 88.390625 139.726562 82.644531 135.195312 C 76.675781 130.492188 70.261719 126.179688 65.121094 120.542969 C 55.480469 109.96875 46.707031 94.730469 50.402344 79.933594 C 51.972656 73.65625 55.871094 67.488281 62.578125 66.027344 C 68.296875 64.785156 73.910156 66.949219 77.65625 71.308594 C 81.21875 75.449219 83.171875 80.695312 86.46875 85.019531 C 88.292969 87.40625 95.453125 95.082031 97.414062 88.972656 C 97.78125 87.835938 96.042969 87.097656 95.480469 88.15625 " fill-opacity="1" fill-rule="nonzero"/><path fill="#ffffff" d="M 95.609375 77.960938 C 94.0625 66.917969 87.632812 56.714844 77.441406 51.699219 C 69.054688 47.574219 58.09375 48.183594 49.78125 52.269531 C 39.519531 57.320312 34.570312 68.421875 33.289062 79.292969 C 31.765625 92.25 36.203125 104.855469 42.496094 115.988281 C 50.328125 129.84375 62.777344 139.574219 75.074219 149.289062 C 89.589844 160.753906 104.125 172.242188 117.660156 184.878906 C 125.121094 191.84375 132.457031 199.148438 138.636719 207.296875 C 141.175781 210.640625 143.535156 214.164062 145.414062 217.925781 C 146.191406 219.488281 146.863281 221.082031 147.390625 222.746094 C 147.9375 224.476562 148.515625 226.351562 148.652344 228.175781 C 148.773438 229.796875 148.476562 234.300781 145.820312 233.820312 C 143.292969 233.367188 142.195312 237 144.742188 237.726562 C 150.25 239.300781 153.953125 233.601562 153.84375 228.726562 C 153.746094 224.355469 152.125 219.910156 150.269531 215.980469 C 147.027344 209.109375 142.214844 202.972656 137.265625 197.257812 C 124.945312 183.023438 110.390625 170.742188 95.828125 158.886719 C 84.816406 149.921875 73.25 141.535156 62.785156 131.925781 C 59.351562 128.777344 55.8125 125.664062 52.917969 121.992188 C 49.503906 117.671875 46.746094 112.683594 44.351562 107.738281 C 38.613281 95.90625 36.269531 82.199219 41.25 69.660156 C 45.570312 58.789062 55.527344 53.917969 66.816406 54.40625 C 79.894531 54.972656 89.753906 66.847656 93.566406 78.523438 C 94 79.855469 95.792969 79.28125 95.609375 77.960938 " fill-opacity="1" fill-rule="nonzero"/><path fill="#ffffff" d="M 130.785156 294.121094 C 129.800781 299.351562 129.824219 304.824219 129.703125 310.136719 C 129.65625 312.054688 129.613281 313.96875 129.566406 315.886719 C 129.492188 319.269531 128.839844 323.183594 129.75 326.441406 C 130.292969 328.402344 133.175781 328.40625 133.722656 326.441406 C 134.613281 323.257812 133.988281 319.492188 133.914062 316.195312 C 133.863281 314.175781 133.816406 312.15625 133.769531 310.136719 C 133.648438 304.824219 133.671875 299.351562 132.6875 294.121094 C 132.511719 293.183594 130.964844 293.183594 130.785156 294.121094 " fill-opacity="1" fill-rule="nonzero"/><path fill="#ffffff" d="M 237.203125 294.121094 C 236.226562 299.253906 236.242188 304.628906 236.117188 309.839844 C 236.074219 311.6875 236.03125 313.535156 235.984375 315.382812 C 235.90625 318.738281 235.261719 322.613281 236.164062 325.847656 C 236.710938 327.808594 239.59375 327.808594 240.140625 325.847656 C 241.023438 322.683594 240.402344 318.957031 240.328125 315.679688 C 240.28125 313.734375 240.234375 311.785156 240.1875 309.839844 C 240.0625 304.628906 240.078125 299.253906 239.101562 294.121094 C 238.925781 293.183594 237.382812 293.183594 237.203125 294.121094 " fill-opacity="1" fill-rule="nonzero"/><path fill="#ffffff" d="M 132.132812 294.921875 C 135.832031 295.746094 139.734375 295.703125 143.515625 295.832031 C 147.910156 295.980469 152.304688 296.105469 156.699219 296.179688 C 165.851562 296.328125 175.011719 296.5 184.164062 296.570312 C 193.335938 296.640625 202.511719 296.707031 211.679688 296.78125 C 216.097656 296.816406 220.515625 296.851562 224.933594 296.882812 C 228.894531 296.917969 233.035156 297.308594 236.964844 296.839844 C 239.839844 296.496094 239.820312 292.746094 236.964844 292.378906 C 233.042969 291.875 228.890625 292.226562 224.933594 292.226562 C 220.515625 292.226562 216.097656 292.226562 211.679688 292.230469 C 202.511719 292.234375 193.335938 292.234375 184.164062 292.238281 C 175.011719 292.242188 165.851562 292.347656 156.699219 292.433594 C 152.304688 292.472656 147.910156 292.5625 143.515625 292.675781 C 139.730469 292.773438 135.839844 292.699219 132.132812 293.488281 C 131.417969 293.640625 131.425781 294.765625 132.132812 294.921875 " fill-opacity="1" fill-rule="nonzero"/><path fill="#ffffff" d="M 124.402344 327.621094 C 130.808594 328.871094 137.675781 328.515625 144.1875 328.644531 C 152.382812 328.804688 160.582031 328.847656 168.777344 328.898438 C 185.867188 329.011719 202.957031 328.960938 220.050781 328.992188 C 227.753906 329.003906 235.84375 329.746094 243.503906 328.941406 C 246.378906 328.640625 246.363281 324.808594 243.503906 324.484375 C 236.863281 323.726562 229.832031 324.355469 223.152344 324.386719 C 214.921875 324.425781 206.695312 324.484375 198.464844 324.539062 C 181.402344 324.65625 164.332031 324.75 147.273438 325.132812 C 139.761719 325.300781 131.804688 324.8125 124.402344 326.183594 C 123.691406 326.320312 123.695312 327.484375 124.402344 327.621094 " fill-opacity="1" fill-rule="nonzero"/><g clip-path="url(#e00a947557)"><path fill="#ffffff" d="M 124.996094 335.941406 C 131.351562 337.1875 138.175781 336.8125 144.632812 336.910156 C 152.75 337.03125 160.863281 337.023438 168.976562 337.023438 C 186.039062 337.03125 203.105469 336.851562 220.167969 336.796875 C 227.835938 336.765625 235.878906 337.476562 243.503906 336.671875 C 246.378906 336.367188 246.363281 332.535156 243.503906 332.210938 C 236.914062 331.457031 229.921875 332.113281 223.296875 332.175781 C 215.148438 332.253906 207 332.359375 198.855469 332.464844 C 181.820312 332.695312 164.777344 332.914062 147.742188 333.386719 C 140.269531 333.59375 132.359375 333.136719 124.996094 334.507812 C 124.285156 334.644531 124.292969 335.804688 124.996094 335.941406 " fill-opacity="1" fill-rule="nonzero"/></g><path fill="#ffffff" d="M 125.757812 335.644531 C 126.800781 335.015625 126.984375 333.644531 127.226562 332.558594 C 127.535156 331.179688 128.042969 329.375 127.679688 327.953125 C 127.074219 325.578125 123.867188 325.855469 123.140625 327.953125 C 122.699219 329.214844 123.085938 330.984375 123.253906 332.253906 C 123.421875 333.484375 123.472656 334.847656 124.539062 335.644531 C 124.871094 335.894531 125.425781 335.851562 125.757812 335.644531 " fill-opacity="1" fill-rule="nonzero"/><path fill="#ffffff" d="M 245.5 335.457031 C 246.410156 334.429688 246.398438 332.953125 246.53125 331.660156 C 246.683594 330.171875 247.03125 328.257812 246.59375 326.78125 C 245.964844 324.679688 242.527344 324.410156 242.050781 326.78125 C 241.722656 328.414062 242.203125 330.324219 242.515625 331.921875 C 242.746094 333.097656 242.867188 334.585938 243.792969 335.457031 C 244.246094 335.886719 245.058594 335.960938 245.5 335.457031 " fill-opacity="1" fill-rule="nonzero"/><g clip-path="url(#886078f49a)"><path fill="#ffffff" d="M 84.652344 47.660156 C 84.582031 46.734375 85.867188 46.929688 86.769531 46.519531 C 86.820312 46.5 86.859375 46.449219 86.910156 46.425781 C 87.0625 46.355469 87.195312 46.238281 87.347656 46.164062 C 87.875 45.898438 88.382812 45.613281 88.921875 45.371094 C 89.226562 45.234375 90.488281 44.753906 91.414062 44.449219 C 92.839844 43.972656 94.285156 43.554688 95.738281 43.175781 C 108.050781 40 121.039062 38.933594 133.675781 38.085938 C 160.0625 36.308594 186.683594 36.308594 213.097656 37.480469 C 230.957031 38.269531 249.089844 39.511719 266.53125 43.667969 C 271.183594 44.78125 275.777344 46.003906 279.582031 48.210938 C 279.949219 48.425781 281.515625 49.558594 280.933594 49.0625 C 281.363281 49.425781 281.761719 49.796875 282.128906 50.226562 C 281.296875 49.246094 283.050781 51.359375 282.1875 50.3125 C 282.597656 50.8125 281.8125 50.898438 282.242188 50.261719 C 282.003906 50.617188 282.234375 50.566406 282.308594 50.199219 C 281.609375 53.628906 286.871094 55.101562 287.574219 51.652344 C 288.992188 44.726562 279.167969 41.519531 274.253906 39.941406 C 258.609375 34.929688 241.488281 33.875 225.207031 32.886719 C 197.128906 31.183594 168.78125 31.242188 140.699219 32.886719 C 125.785156 33.761719 110.449219 34.816406 95.996094 38.859375 C 93.035156 39.6875 80.542969 43.121094 82.953125 48.121094 C 83.34375 48.921875 84.71875 48.542969 84.652344 47.660156 " fill-opacity="1" fill-rule="nonzero"/></g><path fill="#ffffff" d="M 196.59375 251.234375 C 195.890625 253.796875 195.847656 256.613281 195.660156 259.261719 C 195.472656 261.902344 194.898438 264.992188 195.714844 267.535156 C 196.167969 268.925781 198.097656 268.929688 198.546875 267.535156 C 199.367188 264.984375 198.792969 261.90625 198.605469 259.261719 C 198.417969 256.617188 198.371094 253.792969 197.667969 251.234375 C 197.523438 250.703125 196.738281 250.703125 196.59375 251.234375 " fill-opacity="1" fill-rule="nonzero"/><path fill="#ffffff" d="M 172.222656 251.234375 C 171.515625 253.796875 171.472656 256.613281 171.285156 259.261719 C 171.097656 261.902344 170.523438 264.992188 171.34375 267.535156 C 171.792969 268.925781 173.722656 268.929688 174.171875 267.535156 C 174.992188 264.984375 174.417969 261.90625 174.230469 259.261719 C 174.042969 256.617188 173.996094 253.792969 173.292969 251.234375 C 173.148438 250.703125 172.363281 250.703125 172.222656 251.234375 " fill-opacity="1" fill-rule="nonzero"/><path fill="#ffffff" d="M 139.273438 294.355469 C 141.726562 290.636719 143.601562 285.207031 148.140625 283.585938 C 151.707031 282.3125 155.5 281.671875 159.113281 280.527344 C 164.808594 278.71875 176.089844 274.847656 174.84375 266.9375 C 174.539062 265.019531 171.535156 265.175781 171.117188 266.9375 C 170.214844 270.730469 167.953125 272.515625 164.472656 274.226562 C 160.738281 276.0625 156.664062 277.210938 152.6875 278.390625 C 149.800781 279.246094 146.242188 279.828125 143.929688 281.890625 C 140.824219 284.65625 138.085938 289.835938 138.023438 294.019531 C 138.015625 294.710938 138.917969 294.890625 139.273438 294.355469 " fill-opacity="1" fill-rule="nonzero"/><path fill="#ffffff" d="M 230.675781 294.664062 C 233.988281 295.273438 234.207031 291.378906 233.535156 289.097656 C 232.1875 284.539062 228.367188 280.742188 223.804688 279.46875 C 221.417969 278.800781 218.910156 279.007812 216.472656 278.65625 C 213.921875 278.289062 211.34375 277.628906 208.949219 276.671875 C 206.425781 275.664062 203.972656 274.234375 202.132812 272.199219 C 199.96875 269.808594 199.570312 267.207031 199.109375 264.144531 C 198.757812 261.828125 195.511719 262.671875 195.3125 264.660156 C 194.292969 274.679688 205.382812 280.632812 213.683594 282.089844 C 218.164062 282.875 222.839844 282.0625 226.742188 284.816406 C 227.863281 285.609375 234.011719 292.28125 230.675781 293.375 C 230.097656 293.5625 229.984375 294.535156 230.675781 294.664062 " fill-opacity="1" fill-rule="nonzero"/><path fill="#ffffff" d="M 172.179688 268.144531 C 180.269531 270.210938 188.941406 270.476562 197.175781 269.167969 C 199.765625 268.753906 199.179688 264.378906 196.554688 264.570312 C 192.554688 264.859375 188.589844 265.167969 184.574219 265.183594 C 180.554688 265.195312 176.585938 264.933594 172.570312 265.265625 C 170.996094 265.390625 170.480469 267.714844 172.179688 268.144531 " fill-opacity="1" fill-rule="nonzero"/><path fill="#ffffff" d="M 149.574219 303.363281 C 161.445312 304.105469 173.351562 304.140625 185.238281 304.175781 C 197.070312 304.210938 209.164062 304.417969 220.914062 302.839844 C 221.316406 302.789062 221.320312 302.261719 220.914062 302.210938 C 209.164062 300.726562 197.058594 301.152344 185.238281 301.296875 C 173.351562 301.441406 161.464844 301.777344 149.574219 301.878906 C 148.609375 301.886719 148.625 303.304688 149.574219 303.363281 " fill-opacity="1" fill-rule="nonzero"/><path fill="#ffffff" d="M 208.03125 302.527344 C 208.296875 302.546875 208.558594 302.566406 208.824219 302.582031 C 208.921875 302.589844 208.921875 302.429688 208.824219 302.433594 C 208.558594 302.453125 208.296875 302.472656 208.03125 302.492188 C 208.007812 302.492188 208.007812 302.527344 208.03125 302.527344 " fill-opacity="1" fill-rule="nonzero"/><path fill="#ffffff" d="M 149.574219 318.378906 C 161.464844 318.472656 173.347656 318.640625 185.238281 318.664062 C 197.074219 318.683594 209.152344 318.941406 220.914062 317.449219 C 221.320312 317.398438 221.316406 316.871094 220.914062 316.820312 C 209.175781 315.25 197.054688 315.625 185.238281 315.78125 C 173.34375 315.941406 161.449219 316.144531 149.574219 316.890625 C 148.628906 316.953125 148.609375 318.371094 149.574219 318.378906 " fill-opacity="1" fill-rule="nonzero"/><path fill="#ffffff" d="M 208.03125 317.167969 C 208.296875 317.1875 208.558594 317.210938 208.824219 317.226562 C 208.921875 317.234375 208.921875 317.074219 208.824219 317.078125 C 208.558594 317.09375 208.296875 317.113281 208.03125 317.136719 C 208.007812 317.136719 208.007812 317.167969 208.03125 317.167969 " fill-opacity="1" fill-rule="nonzero"/><path fill="#ffffff" d="M 220.03125 302.820312 C 219.480469 304.820312 219.46875 306.96875 219.289062 309.035156 C 219.105469 311.105469 218.367188 313.566406 219.121094 315.5 C 219.726562 317.0625 221.699219 317.0625 222.308594 315.5 C 223.0625 313.5625 222.320312 311.109375 222.140625 309.035156 C 221.960938 306.96875 221.945312 304.820312 221.394531 302.820312 C 221.210938 302.148438 220.21875 302.148438 220.03125 302.820312 " fill-opacity="1" fill-rule="nonzero"/><path fill="#ffffff" d="M 149.0625 303.179688 C 148.613281 305.617188 148.742188 307.765625 149.128906 310.183594 C 149.363281 311.65625 149 314.691406 148.980469 316.671875 C 148.964844 318.925781 152.378906 318.910156 152.472656 316.671875 C 152.679688 311.832031 152.078125 307.707031 150.355469 303.179688 C 150.144531 302.628906 149.195312 302.464844 149.0625 303.179688 " fill-opacity="1" fill-rule="nonzero"/></svg>